<svg width="483" height="337" viewBox="0 0 483 337" fill="none" xmlns="http://www.w3.org/2000/svg">
<path d="M179 5C179 2.23858 181.239 0 184 0H463C465.761 0 468 2.23858 468 5V19C468 21.7614 465.761 24 463 24H184C181.239 24 179 21.7614 179 19V5Z" fill="#A4A4A4"/>
<path d="M179 55C179 52.2386 181.239 50 184 50H463C465.761 50 468 52.2386 468 55V69C468 71.7614 465.761 74 463 74H184C181.239 74 179 71.7614 179 69V55Z" fill="#A4A4A4"/>
<path d="M179 30C179 27.2386 181.239 25 184 25H463C465.761 25 468 27.2386 468 30V44C468 46.7614 465.761 49 463 49H184C181.239 49 179 46.7614 179 44V30Z" fill="#A4A4A4"/>
<path d="M179 80C179 77.2386 181.239 75 184 75H463C465.761 75 468 77.2386 468 80V94C468 96.7614 465.761 99 463 99H184C181.239 99 179 96.7614 179 94V80Z" fill="#A4A4A4"/>
<path d="M179 130C179 127.239 181.239 125 184 125H463C465.761 125 468 127.239 468 130V144C468 146.761 465.761 149 463 149H184C181.239 149 179 146.761 179 144V130Z" fill="#A4A4A4"/>
<path d="M179 105C179 102.239 181.239 100 184 100H463C465.761 100 468 102.239 468 105V119C468 121.761 465.761 124 463 124H184C181.239 124 179 121.761 179 119V105Z" fill="#A4A4A4"/>
<path d="M179 155C179 152.239 181.239 150 184 150H463C465.761 150 468 152.239 468 155V169C468 171.761 465.761 174 463 174H184C181.239 174 179 171.761 179 169V155Z" fill="#A4A4A4"/>
<path d="M179 205C179 202.239 181.239 200 184 200H463C465.761 200 468 202.239 468 205V219C468 221.761 465.761 224 463 224H184C181.239 224 179 221.761 179 219V205Z" fill="#A4A4A4"/>
<path d="M179 180C179 177.239 181.239 175 184 175H463C465.761 175 468 177.239 468 180V194C468 196.761 465.761 199 463 199H184C181.239 199 179 196.761 179 194V180Z" fill="#A4A4A4"/>
<path d="M179 230C179 227.239 181.239 225 184 225H463C465.761 225 468 227.239 468 230V244C468 246.761 465.761 249 463 249H184C181.239 249 179 246.761 179 244V230Z" fill="#A4A4A4"/>
<path d="M22.508 8.98V11.08H25.328V12.412H22.508V14.632H25.688V16H20.828V7.612H25.688V8.98H22.508Z" fill="#1F1F1F"/>
<path d="M30.8987 9.256C31.6907 9.256 32.3307 9.508 32.8187 10.012C33.3067 10.508 33.5507 11.204 33.5507 12.1V16H31.8707V12.328C31.8707 11.8 31.7387 11.396 31.4747 11.116C31.2107 10.828 30.8507 10.684 30.3947 10.684C29.9307 10.684 29.5627 10.828 29.2907 11.116C29.0267 11.396 28.8947 11.8 28.8947 12.328V16H27.2147V9.352H28.8947V10.18C29.1187 9.892 29.4027 9.668 29.7467 9.508C30.0987 9.34 30.4827 9.256 30.8987 9.256Z" fill="#1F1F1F"/>
<path d="M37.7523 9.244C38.2483 9.244 38.6843 9.344 39.0603 9.544C39.4363 9.736 39.7323 9.988 39.9483 10.3V9.352H41.6403V16.048C41.6403 16.664 41.5163 17.212 41.2683 17.692C41.0203 18.18 40.6483 18.564 40.1523 18.844C39.6563 19.132 39.0563 19.276 38.3523 19.276C37.4083 19.276 36.6323 19.056 36.0243 18.616C35.4243 18.176 35.0843 17.576 35.0043 16.816H36.6723C36.7603 17.12 36.9483 17.36 37.2363 17.536C37.5323 17.72 37.8883 17.812 38.3043 17.812C38.7923 17.812 39.1883 17.664 39.4923 17.368C39.7963 17.08 39.9483 16.64 39.9483 16.048V15.016C39.7323 15.328 39.4323 15.588 39.0483 15.796C38.6723 16.004 38.2403 16.108 37.7523 16.108C37.1923 16.108 36.6803 15.964 36.2163 15.676C35.7523 15.388 35.3843 14.984 35.1123 14.464C34.8483 13.936 34.7163 13.332 34.7163 12.652C34.7163 11.98 34.8483 11.384 35.1123 10.864C35.3843 10.344 35.7483 9.944 36.2043 9.664C36.6683 9.384 37.1843 9.244 37.7523 9.244ZM39.9483 12.676C39.9483 12.268 39.8683 11.92 39.7083 11.632C39.5483 11.336 39.3323 11.112 39.0603 10.96C38.7883 10.8 38.4963 10.72 38.1843 10.72C37.8723 10.72 37.5843 10.796 37.3203 10.948C37.0563 11.1 36.8403 11.324 36.6723 11.62C36.5123 11.908 36.4323 12.252 36.4323 12.652C36.4323 13.052 36.5123 13.404 36.6723 13.708C36.8403 14.004 37.0563 14.232 37.3203 14.392C37.5923 14.552 37.8803 14.632 38.1843 14.632C38.4963 14.632 38.7883 14.556 39.0603 14.404C39.3323 14.244 39.5483 14.02 39.7083 13.732C39.8683 13.436 39.9483 13.084 39.9483 12.676Z" fill="#1F1F1F"/>
<path d="M44.0251 16.084C43.7211 16.084 43.4691 15.992 43.2691 15.808C43.0771 15.616 42.9811 15.38 42.9811 15.1C42.9811 14.82 43.0771 14.588 43.2691 14.404C43.4691 14.212 43.7211 14.116 44.0251 14.116C44.3211 14.116 44.5651 14.212 44.7571 14.404C44.9491 14.588 45.0451 14.82 45.0451 15.1C45.0451 15.38 44.9491 15.616 44.7571 15.808C44.5651 15.992 44.3211 16.084 44.0251 16.084Z" fill="#1F1F1F"/>
<path d="M48.8497 11.8C48.8497 10.976 49.0337 10.24 49.4017 9.592C49.7777 8.936 50.2857 8.428 50.9257 8.068C51.5737 7.7 52.2977 7.516 53.0977 7.516C54.0337 7.516 54.8537 7.756 55.5577 8.236C56.2617 8.716 56.7537 9.38 57.0337 10.228H55.1017C54.9097 9.828 54.6377 9.528 54.2857 9.328C53.9417 9.128 53.5417 9.028 53.0857 9.028C52.5977 9.028 52.1617 9.144 51.7777 9.376C51.4017 9.6 51.1057 9.92 50.8897 10.336C50.6817 10.752 50.5777 11.24 50.5777 11.8C50.5777 12.352 50.6817 12.84 50.8897 13.264C51.1057 13.68 51.4017 14.004 51.7777 14.236C52.1617 14.46 52.5977 14.572 53.0857 14.572C53.5417 14.572 53.9417 14.472 54.2857 14.272C54.6377 14.064 54.9097 13.76 55.1017 13.36H57.0337C56.7537 14.216 56.2617 14.884 55.5577 15.364C54.8617 15.836 54.0417 16.072 53.0977 16.072C52.2977 16.072 51.5737 15.892 50.9257 15.532C50.2857 15.164 49.7777 14.656 49.4017 14.008C49.0337 13.36 48.8497 12.624 48.8497 11.8Z" fill="#1F1F1F"/>
<path d="M59.3206 8.56C59.0246 8.56 58.7766 8.468 58.5766 8.284C58.3846 8.092 58.2886 7.856 58.2886 7.576C58.2886 7.296 58.3846 7.064 58.5766 6.88C58.7766 6.688 59.0246 6.592 59.3206 6.592C59.6166 6.592 59.8606 6.688 60.0526 6.88C60.2526 7.064 60.3526 7.296 60.3526 7.576C60.3526 7.856 60.2526 8.092 60.0526 8.284C59.8606 8.468 59.6166 8.56 59.3206 8.56ZM60.1486 9.352V16H58.4686V9.352H60.1486Z" fill="#1F1F1F"/>
<path d="M64.5805 14.452L66.2605 9.352H68.0485L65.5885 16H63.5485L61.1005 9.352H62.9005L64.5805 14.452Z" fill="#1F1F1F"/>
<path d="M69.8441 8.56C69.5481 8.56 69.3001 8.468 69.1001 8.284C68.9081 8.092 68.8121 7.856 68.8121 7.576C68.8121 7.296 68.9081 7.064 69.1001 6.88C69.3001 6.688 69.5481 6.592 69.8441 6.592C70.1401 6.592 70.3841 6.688 70.5761 6.88C70.7761 7.064 70.8761 7.296 70.8761 7.576C70.8761 7.856 70.7761 8.092 70.5761 8.284C70.3841 8.468 70.1401 8.56 69.8441 8.56ZM70.6721 9.352V16H68.9921V9.352H70.6721Z" fill="#1F1F1F"/>
<path d="M74.0119 7.12V16H72.3319V7.12H74.0119Z" fill="#1F1F1F"/>
<path d="M23.72 41.084C23.136 41.084 22.608 40.984 22.136 40.784C21.672 40.584 21.304 40.296 21.032 39.92C20.76 39.544 20.62 39.1 20.612 38.588H22.412C22.436 38.932 22.556 39.204 22.772 39.404C22.996 39.604 23.3 39.704 23.684 39.704C24.076 39.704 24.384 39.612 24.608 39.428C24.832 39.236 24.944 38.988 24.944 38.684C24.944 38.436 24.868 38.232 24.716 38.072C24.564 37.912 24.372 37.788 24.14 37.7C23.916 37.604 23.604 37.5 23.204 37.388C22.66 37.228 22.216 37.072 21.872 36.92C21.536 36.76 21.244 36.524 20.996 36.212C20.756 35.892 20.636 35.468 20.636 34.94C20.636 34.444 20.76 34.012 21.008 33.644C21.256 33.276 21.604 32.996 22.052 32.804C22.5 32.604 23.012 32.504 23.588 32.504C24.452 32.504 25.152 32.716 25.688 33.14C26.232 33.556 26.532 34.14 26.588 34.892H24.74C24.724 34.604 24.6 34.368 24.368 34.184C24.144 33.992 23.844 33.896 23.468 33.896C23.14 33.896 22.876 33.98 22.676 34.148C22.484 34.316 22.388 34.56 22.388 34.88C22.388 35.104 22.46 35.292 22.604 35.444C22.756 35.588 22.94 35.708 23.156 35.804C23.38 35.892 23.692 35.996 24.092 36.116C24.636 36.276 25.08 36.436 25.424 36.596C25.768 36.756 26.064 36.996 26.312 37.316C26.56 37.636 26.684 38.056 26.684 38.576C26.684 39.024 26.568 39.44 26.336 39.824C26.104 40.208 25.764 40.516 25.316 40.748C24.868 40.972 24.336 41.084 23.72 41.084Z" fill="#1F1F1F"/>
<path d="M28.9925 33.56C28.6965 33.56 28.4485 33.468 28.2485 33.284C28.0565 33.092 27.9605 32.856 27.9605 32.576C27.9605 32.296 28.0565 32.064 28.2485 31.88C28.4485 31.688 28.6965 31.592 28.9925 31.592C29.2885 31.592 29.5325 31.688 29.7245 31.88C29.9245 32.064 30.0245 32.296 30.0245 32.576C30.0245 32.856 29.9245 33.092 29.7245 33.284C29.5325 33.468 29.2885 33.56 28.9925 33.56ZM29.8205 34.352V41H28.1405V34.352H29.8205Z" fill="#1F1F1F"/>
<path d="M34.0243 41.108C33.4803 41.108 32.9923 41.012 32.5603 40.82C32.1283 40.62 31.7843 40.352 31.5283 40.016C31.2803 39.68 31.1443 39.308 31.1203 38.9H32.8123C32.8443 39.156 32.9683 39.368 33.1843 39.536C33.4083 39.704 33.6843 39.788 34.0123 39.788C34.3323 39.788 34.5803 39.724 34.7563 39.596C34.9403 39.468 35.0323 39.304 35.0323 39.104C35.0323 38.888 34.9203 38.728 34.6963 38.624C34.4803 38.512 34.1323 38.392 33.6523 38.264C33.1563 38.144 32.7483 38.02 32.4283 37.892C32.1163 37.764 31.8443 37.568 31.6123 37.304C31.3883 37.04 31.2763 36.684 31.2763 36.236C31.2763 35.868 31.3803 35.532 31.5883 35.228C31.8043 34.924 32.1083 34.684 32.5003 34.508C32.9003 34.332 33.3683 34.244 33.9043 34.244C34.6963 34.244 35.3283 34.444 35.8003 34.844C36.2723 35.236 36.5323 35.768 36.5803 36.44H34.9723C34.9483 36.176 34.8363 35.968 34.6363 35.816C34.4443 35.656 34.1843 35.576 33.8563 35.576C33.5523 35.576 33.3163 35.632 33.1483 35.744C32.9883 35.856 32.9083 36.012 32.9083 36.212C32.9083 36.436 33.0203 36.608 33.2443 36.728C33.4683 36.84 33.8163 36.956 34.2883 37.076C34.7683 37.196 35.1643 37.32 35.4763 37.448C35.7883 37.576 36.0563 37.776 36.2803 38.048C36.5123 38.312 36.6323 38.664 36.6403 39.104C36.6403 39.488 36.5323 39.832 36.3163 40.136C36.1083 40.44 35.8043 40.68 35.4043 40.856C35.0123 41.024 34.5523 41.108 34.0243 41.108Z" fill="#1F1F1F"/>
<path d="M38.7634 41.084C38.4594 41.084 38.2074 40.992 38.0074 40.808C37.8154 40.616 37.7194 40.38 37.7194 40.1C37.7194 39.82 37.8154 39.588 38.0074 39.404C38.2074 39.212 38.4594 39.116 38.7634 39.116C39.0594 39.116 39.3034 39.212 39.4954 39.404C39.6874 39.588 39.7834 39.82 39.7834 40.1C39.7834 40.38 39.6874 40.616 39.4954 40.808C39.3034 40.992 39.0594 41.084 38.7634 41.084Z" fill="#1F1F1F"/>
<path d="M43.564 37.652C43.564 36.98 43.696 36.384 43.96 35.864C44.232 35.344 44.6 34.944 45.064 34.664C45.528 34.384 46.044 34.244 46.612 34.244C47.044 34.244 47.456 34.34 47.848 34.532C48.24 34.716 48.552 34.964 48.784 35.276V32.12H50.488V41H48.784V40.016C48.576 40.344 48.284 40.608 47.908 40.808C47.532 41.008 47.096 41.108 46.6 41.108C46.04 41.108 45.528 40.964 45.064 40.676C44.6 40.388 44.232 39.984 43.96 39.464C43.696 38.936 43.564 38.332 43.564 37.652ZM48.796 37.676C48.796 37.268 48.716 36.92 48.556 36.632C48.396 36.336 48.18 36.112 47.908 35.96C47.636 35.8 47.344 35.72 47.032 35.72C46.72 35.72 46.432 35.796 46.168 35.948C45.904 36.1 45.688 36.324 45.52 36.62C45.36 36.908 45.28 37.252 45.28 37.652C45.28 38.052 45.36 38.404 45.52 38.708C45.688 39.004 45.904 39.232 46.168 39.392C46.44 39.552 46.728 39.632 47.032 39.632C47.344 39.632 47.636 39.556 47.908 39.404C48.18 39.244 48.396 39.02 48.556 38.732C48.716 38.436 48.796 38.084 48.796 37.676Z" fill="#1F1F1F"/>
<path d="M58.3088 37.532C58.3088 37.772 58.2928 37.988 58.2608 38.18H53.4008C53.4408 38.66 53.6088 39.036 53.9048 39.308C54.2008 39.58 54.5648 39.716 54.9968 39.716C55.6208 39.716 56.0648 39.448 56.3288 38.912H58.1408C57.9488 39.552 57.5808 40.08 57.0368 40.496C56.4928 40.904 55.8248 41.108 55.0328 41.108C54.3928 41.108 53.8168 40.968 53.3048 40.688C52.8008 40.4 52.4048 39.996 52.1168 39.476C51.8368 38.956 51.6968 38.356 51.6968 37.676C51.6968 36.988 51.8368 36.384 52.1168 35.864C52.3968 35.344 52.7888 34.944 53.2928 34.664C53.7968 34.384 54.3768 34.244 55.0328 34.244C55.6648 34.244 56.2288 34.38 56.7248 34.652C57.2288 34.924 57.6168 35.312 57.8888 35.816C58.1688 36.312 58.3088 36.884 58.3088 37.532ZM56.5688 37.052C56.5608 36.62 56.4048 36.276 56.1008 36.02C55.7968 35.756 55.4248 35.624 54.9848 35.624C54.5688 35.624 54.2168 35.752 53.9288 36.008C53.6488 36.256 53.4768 36.604 53.4128 37.052H56.5688Z" fill="#1F1F1F"/>
<path d="M64.0744 32.624V41H62.3944V32.624H64.0744Z" fill="#1F1F1F"/>
<path d="M69.4183 34.256C70.2103 34.256 70.8502 34.508 71.3382 35.012C71.8262 35.508 72.0703 36.204 72.0703 37.1V41H70.3903V37.328C70.3903 36.8 70.2582 36.396 69.9942 36.116C69.7302 35.828 69.3703 35.684 68.9143 35.684C68.4503 35.684 68.0822 35.828 67.8102 36.116C67.5462 36.396 67.4143 36.8 67.4143 37.328V41H65.7343V34.352H67.4143V35.18C67.6383 34.892 67.9223 34.668 68.2663 34.508C68.6183 34.34 69.0023 34.256 69.4183 34.256Z" fill="#1F1F1F"/>
<path d="M76.7158 35.732H75.5518V41H73.8478V35.732H73.0918V34.352H73.8478V34.016C73.8478 33.2 74.0798 32.6 74.5438 32.216C75.0078 31.832 75.7078 31.652 76.6438 31.676V33.092C76.2358 33.084 75.9518 33.152 75.7918 33.296C75.6318 33.44 75.5518 33.7 75.5518 34.076V34.352H76.7158V35.732Z" fill="#1F1F1F"/>
<path d="M80.7566 41.108C80.1166 41.108 79.5406 40.968 79.0286 40.688C78.5166 40.4 78.1126 39.996 77.8166 39.476C77.5286 38.956 77.3846 38.356 77.3846 37.676C77.3846 36.996 77.5326 36.396 77.8286 35.876C78.1326 35.356 78.5446 34.956 79.0646 34.676C79.5846 34.388 80.1646 34.244 80.8046 34.244C81.4446 34.244 82.0246 34.388 82.5446 34.676C83.0646 34.956 83.4726 35.356 83.7686 35.876C84.0726 36.396 84.2246 36.996 84.2246 37.676C84.2246 38.356 84.0686 38.956 83.7566 39.476C83.4526 39.996 83.0366 40.4 82.5086 40.688C81.9886 40.968 81.4046 41.108 80.7566 41.108ZM80.7566 39.644C81.0606 39.644 81.3446 39.572 81.6086 39.428C81.8806 39.276 82.0966 39.052 82.2566 38.756C82.4166 38.46 82.4966 38.1 82.4966 37.676C82.4966 37.044 82.3286 36.56 81.9926 36.224C81.6646 35.88 81.2606 35.708 80.7806 35.708C80.3006 35.708 79.8966 35.88 79.5686 36.224C79.2486 36.56 79.0886 37.044 79.0886 37.676C79.0886 38.308 79.2446 38.796 79.5566 39.14C79.8766 39.476 80.2766 39.644 80.7566 39.644Z" fill="#1F1F1F"/>
<path d="M87.1369 35.384C87.3529 35.032 87.6329 34.756 87.9769 34.556C88.3289 34.356 88.7289 34.256 89.1769 34.256V36.02H88.7329C88.2049 36.02 87.8049 36.144 87.5329 36.392C87.2689 36.64 87.1369 37.072 87.1369 37.688V41H85.4569V34.352H87.1369V35.384Z" fill="#1F1F1F"/>
<path d="M98.5645 34.256C99.3805 34.256 100.036 34.508 100.532 35.012C101.036 35.508 101.288 36.204 101.288 37.1V41H99.6085V37.328C99.6085 36.808 99.4765 36.412 99.2125 36.14C98.9485 35.86 98.5885 35.72 98.1325 35.72C97.6765 35.72 97.3125 35.86 97.0405 36.14C96.7765 36.412 96.6445 36.808 96.6445 37.328V41H94.9645V37.328C94.9645 36.808 94.8325 36.412 94.5685 36.14C94.3045 35.86 93.9445 35.72 93.4885 35.72C93.0245 35.72 92.6565 35.86 92.3845 36.14C92.1205 36.412 91.9885 36.808 91.9885 37.328V41H90.3085V34.352H91.9885V35.156C92.2045 34.876 92.4805 34.656 92.8165 34.496C93.1605 34.336 93.5365 34.256 93.9445 34.256C94.4645 34.256 94.9285 34.368 95.3365 34.592C95.7445 34.808 96.0605 35.12 96.2845 35.528C96.5005 35.144 96.8125 34.836 97.2205 34.604C97.6365 34.372 98.0845 34.256 98.5645 34.256Z" fill="#1F1F1F"/>
<path d="M102.451 37.652C102.451 36.98 102.583 36.384 102.847 35.864C103.119 35.344 103.483 34.944 103.939 34.664C104.403 34.384 104.919 34.244 105.487 34.244C105.983 34.244 106.415 34.344 106.783 34.544C107.159 34.744 107.459 34.996 107.683 35.3V34.352H109.375V41H107.683V40.028C107.467 40.34 107.167 40.6 106.783 40.808C106.407 41.008 105.971 41.108 105.475 41.108C104.915 41.108 104.403 40.964 103.939 40.676C103.483 40.388 103.119 39.984 102.847 39.464C102.583 38.936 102.451 38.332 102.451 37.652ZM107.683 37.676C107.683 37.268 107.603 36.92 107.443 36.632C107.283 36.336 107.067 36.112 106.795 35.96C106.523 35.8 106.231 35.72 105.919 35.72C105.607 35.72 105.319 35.796 105.055 35.948C104.791 36.1 104.575 36.324 104.407 36.62C104.247 36.908 104.167 37.252 104.167 37.652C104.167 38.052 104.247 38.404 104.407 38.708C104.575 39.004 104.791 39.232 105.055 39.392C105.327 39.552 105.615 39.632 105.919 39.632C106.231 39.632 106.523 39.556 106.795 39.404C107.067 39.244 107.283 39.02 107.443 38.732C107.603 38.436 107.683 38.084 107.683 37.676Z" fill="#1F1F1F"/>
<path d="M113.859 39.668C114.539 39.668 114.983 39.364 115.191 38.756H117.004C116.836 39.404 116.523 39.932 116.067 40.34C115.619 40.748 115.056 40.992 114.376 41.072V41.54C114.816 41.54 115.183 41.652 115.479 41.876C115.783 42.1 115.936 42.424 115.936 42.848C115.936 43.28 115.779 43.612 115.467 43.844C115.163 44.076 114.788 44.192 114.34 44.192H112.635V43.208H114.063C114.255 43.208 114.399 43.18 114.495 43.124C114.599 43.068 114.651 42.968 114.651 42.824C114.651 42.68 114.599 42.58 114.495 42.524C114.399 42.476 114.255 42.452 114.063 42.452H113.32V41.072C112.776 40.992 112.296 40.804 111.88 40.508C111.472 40.204 111.152 39.812 110.92 39.332C110.696 38.844 110.584 38.292 110.584 37.676C110.584 36.988 110.724 36.388 111.004 35.876C111.284 35.356 111.672 34.956 112.168 34.676C112.664 34.388 113.231 34.244 113.871 34.244C114.695 34.244 115.375 34.452 115.911 34.868C116.455 35.276 116.82 35.852 117.004 36.596H115.191C115.095 36.308 114.932 36.084 114.7 35.924C114.476 35.756 114.195 35.672 113.859 35.672C113.379 35.672 112.999 35.848 112.719 36.2C112.439 36.544 112.299 37.036 112.299 37.676C112.299 38.308 112.439 38.8 112.719 39.152C112.999 39.496 113.379 39.668 113.859 39.668Z" fill="#1F1F1F"/>
<path d="M117.802 37.652C117.802 36.98 117.934 36.384 118.198 35.864C118.47 35.344 118.834 34.944 119.29 34.664C119.754 34.384 120.27 34.244 120.838 34.244C121.334 34.244 121.766 34.344 122.134 34.544C122.51 34.744 122.81 34.996 123.034 35.3V34.352H124.726V41H123.034V40.028C122.818 40.34 122.518 40.6 122.134 40.808C121.758 41.008 121.322 41.108 120.826 41.108C120.266 41.108 119.754 40.964 119.29 40.676C118.834 40.388 118.47 39.984 118.198 39.464C117.934 38.936 117.802 38.332 117.802 37.652ZM123.034 37.676C123.034 37.268 122.954 36.92 122.794 36.632C122.634 36.336 122.418 36.112 122.146 35.96C121.874 35.8 121.582 35.72 121.27 35.72C120.958 35.72 120.67 35.796 120.406 35.948C120.142 36.1 119.926 36.324 119.758 36.62C119.598 36.908 119.518 37.252 119.518 37.652C119.518 38.052 119.598 38.404 119.758 38.708C119.926 39.004 120.142 39.232 120.406 39.392C120.678 39.552 120.966 39.632 121.27 39.632C121.582 39.632 121.874 39.556 122.146 39.404C122.418 39.244 122.634 39.02 122.794 38.732C122.954 38.436 123.034 38.084 123.034 37.676ZM119.338 33.716C119.41 33.188 119.574 32.796 119.83 32.54C120.094 32.276 120.426 32.144 120.826 32.144C120.994 32.144 121.142 32.172 121.27 32.228C121.398 32.276 121.542 32.348 121.702 32.444C121.942 32.596 122.142 32.672 122.302 32.672C122.598 32.672 122.77 32.5 122.818 32.156H123.718C123.646 32.684 123.478 33.08 123.214 33.344C122.958 33.6 122.63 33.728 122.23 33.728C122.062 33.728 121.914 33.704 121.786 33.656C121.658 33.6 121.514 33.524 121.354 33.428C121.122 33.268 120.922 33.188 120.754 33.188C120.458 33.188 120.282 33.364 120.226 33.716H119.338Z" fill="#1F1F1F"/>
<path d="M129.319 41.108C128.679 41.108 128.103 40.968 127.591 40.688C127.079 40.4 126.675 39.996 126.379 39.476C126.091 38.956 125.947 38.356 125.947 37.676C125.947 36.996 126.095 36.396 126.391 35.876C126.695 35.356 127.107 34.956 127.627 34.676C128.147 34.388 128.727 34.244 129.367 34.244C130.007 34.244 130.587 34.388 131.107 34.676C131.627 34.956 132.035 35.356 132.331 35.876C132.635 36.396 132.787 36.996 132.787 37.676C132.787 38.356 132.631 38.956 132.319 39.476C132.015 39.996 131.599 40.4 131.071 40.688C130.551 40.968 129.967 41.108 129.319 41.108ZM129.319 39.644C129.623 39.644 129.907 39.572 130.171 39.428C130.443 39.276 130.659 39.052 130.819 38.756C130.979 38.46 131.059 38.1 131.059 37.676C131.059 37.044 130.891 36.56 130.555 36.224C130.227 35.88 129.823 35.708 129.343 35.708C128.863 35.708 128.459 35.88 128.131 36.224C127.811 36.56 127.651 37.044 127.651 37.676C127.651 38.308 127.807 38.796 128.119 39.14C128.439 39.476 128.839 39.644 129.319 39.644Z" fill="#1F1F1F"/>
<path d="M25.964 64.404H22.628L22.076 66H20.312L23.324 57.612H25.28L28.292 66H26.516L25.964 64.404ZM25.508 63.06L24.296 59.556L23.084 63.06H25.508Z" fill="#1F1F1F"/>
<path d="M31.0978 60.384C31.3138 60.032 31.5938 59.756 31.9378 59.556C32.2898 59.356 32.6898 59.256 33.1378 59.256V61.02H32.6938C32.1658 61.02 31.7658 61.144 31.4938 61.392C31.2298 61.64 31.0978 62.072 31.0978 62.688V66H29.4178V59.352H31.0978V60.384Z" fill="#1F1F1F"/>
<path d="M33.8374 62.664C33.8374 62 33.9734 61.412 34.2454 60.9C34.5254 60.38 34.9014 59.976 35.3734 59.688C35.8454 59.4 36.3654 59.256 36.9334 59.256C37.4054 59.256 37.8214 59.348 38.1814 59.532C38.5494 59.708 38.8454 59.936 39.0694 60.216V59.352H40.7614V69.168H39.0694V65.088C38.8454 65.376 38.5454 65.616 38.1694 65.808C37.7934 66 37.3694 66.096 36.8974 66.096C36.3374 66.096 35.8214 65.952 35.3494 65.664C34.8854 65.368 34.5174 64.96 34.2454 64.44C33.9734 63.92 33.8374 63.328 33.8374 62.664ZM39.0694 62.676C39.0694 62.268 38.9854 61.916 38.8174 61.62C38.6494 61.324 38.4294 61.1 38.1574 60.948C37.8934 60.796 37.6094 60.72 37.3054 60.72C37.0094 60.72 36.7254 60.796 36.4534 60.948C36.1894 61.1 35.9734 61.324 35.8054 61.62C35.6374 61.908 35.5534 62.256 35.5534 62.664C35.5534 63.072 35.6374 63.428 35.8054 63.732C35.9734 64.028 36.1894 64.252 36.4534 64.404C36.7254 64.556 37.0094 64.632 37.3054 64.632C37.6094 64.632 37.8934 64.556 38.1574 64.404C38.4294 64.252 38.6494 64.028 38.8174 63.732C38.9854 63.436 39.0694 63.084 39.0694 62.676Z" fill="#1F1F1F"/>
<path d="M43.1462 66.084C42.8422 66.084 42.5902 65.992 42.3902 65.808C42.1982 65.616 42.1022 65.38 42.1022 65.1C42.1022 64.82 42.1982 64.588 42.3902 64.404C42.5902 64.212 42.8422 64.116 43.1462 64.116C43.4422 64.116 43.6862 64.212 43.8782 64.404C44.0702 64.588 44.1662 64.82 44.1662 65.1C44.1662 65.38 44.0702 65.616 43.8782 65.808C43.6862 65.992 43.4422 66.084 43.1462 66.084Z" fill="#1F1F1F"/>
<path d="M54.5588 62.532C54.5588 62.772 54.5428 62.988 54.5108 63.18H49.6508C49.6908 63.66 49.8588 64.036 50.1548 64.308C50.4508 64.58 50.8148 64.716 51.2468 64.716C51.8708 64.716 52.3148 64.448 52.5788 63.912H54.3908C54.1988 64.552 53.8308 65.08 53.2868 65.496C52.7428 65.904 52.0748 66.108 51.2828 66.108C50.6428 66.108 50.0668 65.968 49.5548 65.688C49.0508 65.4 48.6548 64.996 48.3668 64.476C48.0868 63.956 47.9468 63.356 47.9468 62.676C47.9468 61.988 48.0868 61.384 48.3668 60.864C48.6468 60.344 49.0388 59.944 49.5428 59.664C50.0468 59.384 50.6268 59.244 51.2828 59.244C51.9148 59.244 52.4788 59.38 52.9748 59.652C53.4788 59.924 53.8668 60.312 54.1388 60.816C54.4188 61.312 54.5588 61.884 54.5588 62.532ZM52.8188 62.052C52.8108 61.62 52.6548 61.276 52.3508 61.02C52.0468 60.756 51.6748 60.624 51.2348 60.624C50.8188 60.624 50.4668 60.752 50.1788 61.008C49.8988 61.256 49.7268 61.604 49.6628 62.052H52.8188Z" fill="#1F1F1F"/>
<path d="M60.3004 57.624V62.808C60.3004 63.376 60.4484 63.812 60.7444 64.116C61.0404 64.412 61.4564 64.56 61.9924 64.56C62.5364 64.56 62.9564 64.412 63.2524 64.116C63.5484 63.812 63.6964 63.376 63.6964 62.808V57.624H65.3884V62.796C65.3884 63.508 65.2324 64.112 64.9204 64.608C64.6164 65.096 64.2044 65.464 63.6844 65.712C63.1724 65.96 62.6004 66.084 61.9684 66.084C61.3444 66.084 60.7764 65.96 60.2644 65.712C59.7604 65.464 59.3604 65.096 59.0644 64.608C58.7684 64.112 58.6204 63.508 58.6204 62.796V57.624H60.3004Z" fill="#1F1F1F"/>
<path d="M68.6916 60.384C68.9076 60.032 69.1876 59.756 69.5316 59.556C69.8836 59.356 70.2836 59.256 70.7316 59.256V61.02H70.2876C69.7596 61.02 69.3596 61.144 69.0876 61.392C68.8236 61.64 68.6916 62.072 68.6916 62.688V66H67.0116V59.352H68.6916V60.384Z" fill="#1F1F1F"/>
<path d="M73.5432 60.324C73.7592 60.004 74.0552 59.744 74.4312 59.544C74.8152 59.344 75.2512 59.244 75.7392 59.244C76.3072 59.244 76.8192 59.384 77.2752 59.664C77.7392 59.944 78.1032 60.344 78.3672 60.864C78.6392 61.376 78.7752 61.972 78.7752 62.652C78.7752 63.332 78.6392 63.936 78.3672 64.464C78.1032 64.984 77.7392 65.388 77.2752 65.676C76.8192 65.964 76.3072 66.108 75.7392 66.108C75.2432 66.108 74.8072 66.012 74.4312 65.82C74.0632 65.62 73.7672 65.364 73.5432 65.052V66H71.8632V57.12H73.5432V60.324ZM77.0592 62.652C77.0592 62.252 76.9752 61.908 76.8072 61.62C76.6472 61.324 76.4312 61.1 76.1592 60.948C75.8952 60.796 75.6072 60.72 75.2952 60.72C74.9912 60.72 74.7032 60.8 74.4312 60.96C74.1672 61.112 73.9512 61.336 73.7832 61.632C73.6232 61.928 73.5432 62.276 73.5432 62.676C73.5432 63.076 73.6232 63.424 73.7832 63.72C73.9512 64.016 74.1672 64.244 74.4312 64.404C74.7032 64.556 74.9912 64.632 75.2952 64.632C75.6072 64.632 75.8952 64.552 76.1592 64.392C76.4312 64.232 76.6472 64.004 76.8072 63.708C76.9752 63.412 77.0592 63.06 77.0592 62.652Z" fill="#1F1F1F"/>
<path d="M80.74 66.084C80.436 66.084 80.184 65.992 79.984 65.808C79.792 65.616 79.696 65.38 79.696 65.1C79.696 64.82 79.792 64.588 79.984 64.404C80.184 64.212 80.436 64.116 80.74 64.116C81.036 64.116 81.28 64.212 81.472 64.404C81.664 64.588 81.76 64.82 81.76 65.1C81.76 65.38 81.664 65.616 81.472 65.808C81.28 65.992 81.036 66.084 80.74 66.084Z" fill="#1F1F1F"/>
<path d="M22.508 83.98V86.08H25.328V87.412H22.508V89.632H25.688V91H20.828V82.612H25.688V83.98H22.508Z" fill="#1F1F1F"/>
<path d="M30.8987 84.256C31.6907 84.256 32.3307 84.508 32.8187 85.012C33.3067 85.508 33.5507 86.204 33.5507 87.1V91H31.8707V87.328C31.8707 86.8 31.7387 86.396 31.4747 86.116C31.2107 85.828 30.8507 85.684 30.3947 85.684C29.9307 85.684 29.5627 85.828 29.2907 86.116C29.0267 86.396 28.8947 86.8 28.8947 87.328V91H27.2147V84.352H28.8947V85.18C29.1187 84.892 29.4027 84.668 29.7467 84.508C30.0987 84.34 30.4827 84.256 30.8987 84.256Z" fill="#1F1F1F"/>
<path d="M37.7523 84.244C38.2483 84.244 38.6843 84.344 39.0603 84.544C39.4363 84.736 39.7323 84.988 39.9483 85.3V84.352H41.6403V91.048C41.6403 91.664 41.5163 92.212 41.2683 92.692C41.0203 93.18 40.6483 93.564 40.1523 93.844C39.6563 94.132 39.0563 94.276 38.3523 94.276C37.4083 94.276 36.6323 94.056 36.0243 93.616C35.4243 93.176 35.0843 92.576 35.0043 91.816H36.6723C36.7603 92.12 36.9483 92.36 37.2363 92.536C37.5323 92.72 37.8883 92.812 38.3043 92.812C38.7923 92.812 39.1883 92.664 39.4923 92.368C39.7963 92.08 39.9483 91.64 39.9483 91.048V90.016C39.7323 90.328 39.4323 90.588 39.0483 90.796C38.6723 91.004 38.2403 91.108 37.7523 91.108C37.1923 91.108 36.6803 90.964 36.2163 90.676C35.7523 90.388 35.3843 89.984 35.1123 89.464C34.8483 88.936 34.7163 88.332 34.7163 87.652C34.7163 86.98 34.8483 86.384 35.1123 85.864C35.3843 85.344 35.7483 84.944 36.2043 84.664C36.6683 84.384 37.1843 84.244 37.7523 84.244ZM39.9483 87.676C39.9483 87.268 39.8683 86.92 39.7083 86.632C39.5483 86.336 39.3323 86.112 39.0603 85.96C38.7883 85.8 38.4963 85.72 38.1843 85.72C37.8723 85.72 37.5843 85.796 37.3203 85.948C37.0563 86.1 36.8403 86.324 36.6723 86.62C36.5123 86.908 36.4323 87.252 36.4323 87.652C36.4323 88.052 36.5123 88.404 36.6723 88.708C36.8403 89.004 37.0563 89.232 37.3203 89.392C37.5923 89.552 37.8803 89.632 38.1843 89.632C38.4963 89.632 38.7883 89.556 39.0603 89.404C39.3323 89.244 39.5483 89.02 39.7083 88.732C39.8683 88.436 39.9483 88.084 39.9483 87.676Z" fill="#1F1F1F"/>
<path d="M44.0251 91.084C43.7211 91.084 43.4691 90.992 43.2691 90.808C43.0771 90.616 42.9811 90.38 42.9811 90.1C42.9811 89.82 43.0771 89.588 43.2691 89.404C43.4691 89.212 43.7211 89.116 44.0251 89.116C44.3211 89.116 44.5651 89.212 44.7571 89.404C44.9491 89.588 45.0451 89.82 45.0451 90.1C45.0451 90.38 44.9491 90.616 44.7571 90.808C44.5651 90.992 44.3211 91.084 44.0251 91.084Z" fill="#1F1F1F"/>
<path d="M48.8257 87.652C48.8257 86.98 48.9577 86.384 49.2217 85.864C49.4937 85.344 49.8617 84.944 50.3257 84.664C50.7897 84.384 51.3057 84.244 51.8737 84.244C52.3057 84.244 52.7177 84.34 53.1097 84.532C53.5017 84.716 53.8137 84.964 54.0457 85.276V82.12H55.7497V91H54.0457V90.016C53.8377 90.344 53.5457 90.608 53.1697 90.808C52.7937 91.008 52.3577 91.108 51.8617 91.108C51.3017 91.108 50.7897 90.964 50.3257 90.676C49.8617 90.388 49.4937 89.984 49.2217 89.464C48.9577 88.936 48.8257 88.332 48.8257 87.652ZM54.0577 87.676C54.0577 87.268 53.9777 86.92 53.8177 86.632C53.6577 86.336 53.4417 86.112 53.1697 85.96C52.8977 85.8 52.6057 85.72 52.2937 85.72C51.9817 85.72 51.6937 85.796 51.4297 85.948C51.1657 86.1 50.9497 86.324 50.7817 86.62C50.6217 86.908 50.5417 87.252 50.5417 87.652C50.5417 88.052 50.6217 88.404 50.7817 88.708C50.9497 89.004 51.1657 89.232 51.4297 89.392C51.7017 89.552 51.9897 89.632 52.2937 89.632C52.6057 89.632 52.8977 89.556 53.1697 89.404C53.4417 89.244 53.6577 89.02 53.8177 88.732C53.9777 88.436 54.0577 88.084 54.0577 87.676Z" fill="#1F1F1F"/>
<path d="M63.5705 87.532C63.5705 87.772 63.5545 87.988 63.5225 88.18H58.6625C58.7025 88.66 58.8705 89.036 59.1665 89.308C59.4625 89.58 59.8265 89.716 60.2585 89.716C60.8825 89.716 61.3265 89.448 61.5905 88.912H63.4025C63.2105 89.552 62.8425 90.08 62.2985 90.496C61.7545 90.904 61.0865 91.108 60.2945 91.108C59.6545 91.108 59.0785 90.968 58.5665 90.688C58.0625 90.4 57.6665 89.996 57.3785 89.476C57.0985 88.956 56.9585 88.356 56.9585 87.676C56.9585 86.988 57.0985 86.384 57.3785 85.864C57.6585 85.344 58.0505 84.944 58.5545 84.664C59.0585 84.384 59.6385 84.244 60.2945 84.244C60.9265 84.244 61.4905 84.38 61.9865 84.652C62.4905 84.924 62.8785 85.312 63.1505 85.816C63.4305 86.312 63.5705 86.884 63.5705 87.532ZM61.8305 87.052C61.8225 86.62 61.6665 86.276 61.3625 86.02C61.0585 85.756 60.6865 85.624 60.2465 85.624C59.8305 85.624 59.4785 85.752 59.1905 86.008C58.9105 86.256 58.7385 86.604 58.6745 87.052H61.8305Z" fill="#1F1F1F"/>
<path d="M73.7641 85.216C73.7641 85.664 73.6561 86.084 73.4401 86.476C73.2321 86.868 72.9001 87.184 72.4441 87.424C71.9961 87.664 71.4281 87.784 70.7401 87.784H69.3361V91H67.6561V82.624H70.7401C71.3881 82.624 71.9401 82.736 72.3961 82.96C72.8521 83.184 73.1921 83.492 73.4161 83.884C73.6481 84.276 73.7641 84.72 73.7641 85.216ZM70.6681 86.428C71.1321 86.428 71.4761 86.324 71.7001 86.116C71.9241 85.9 72.0361 85.6 72.0361 85.216C72.0361 84.4 71.5801 83.992 70.6681 83.992H69.3361V86.428H70.6681Z" fill="#1F1F1F"/>
<path d="M76.6369 85.384C76.8529 85.032 77.1329 84.756 77.4769 84.556C77.8289 84.356 78.2289 84.256 78.6769 84.256V86.02H78.2329C77.7049 86.02 77.3049 86.144 77.0329 86.392C76.7689 86.64 76.6369 87.072 76.6369 87.688V91H74.9569V84.352H76.6369V85.384Z" fill="#1F1F1F"/>
<path d="M82.7605 91.108C82.1205 91.108 81.5445 90.968 81.0325 90.688C80.5205 90.4 80.1165 89.996 79.8205 89.476C79.5325 88.956 79.3885 88.356 79.3885 87.676C79.3885 86.996 79.5365 86.396 79.8325 85.876C80.1365 85.356 80.5485 84.956 81.0685 84.676C81.5885 84.388 82.1685 84.244 82.8085 84.244C83.4485 84.244 84.0285 84.388 84.5485 84.676C85.0685 84.956 85.4765 85.356 85.7725 85.876C86.0765 86.396 86.2285 86.996 86.2285 87.676C86.2285 88.356 86.0725 88.956 85.7605 89.476C85.4565 89.996 85.0405 90.4 84.5125 90.688C83.9925 90.968 83.4085 91.108 82.7605 91.108ZM82.7605 89.644C83.0645 89.644 83.3485 89.572 83.6125 89.428C83.8845 89.276 84.1005 89.052 84.2605 88.756C84.4205 88.46 84.5005 88.1 84.5005 87.676C84.5005 87.044 84.3325 86.56 83.9965 86.224C83.6685 85.88 83.2645 85.708 82.7845 85.708C82.3045 85.708 81.9005 85.88 81.5725 86.224C81.2525 86.56 81.0925 87.044 81.0925 87.676C81.0925 88.308 81.2485 88.796 81.5605 89.14C81.8805 89.476 82.2805 89.644 82.7605 89.644Z" fill="#1F1F1F"/>
<path d="M87.0288 87.652C87.0288 86.98 87.1608 86.384 87.4248 85.864C87.6968 85.344 88.0648 84.944 88.5288 84.664C88.9928 84.384 89.5088 84.244 90.0768 84.244C90.5088 84.244 90.9208 84.34 91.3128 84.532C91.7048 84.716 92.0168 84.964 92.2488 85.276V82.12H93.9528V91H92.2488V90.016C92.0408 90.344 91.7488 90.608 91.3728 90.808C90.9968 91.008 90.5608 91.108 90.0648 91.108C89.5048 91.108 88.9928 90.964 88.5288 90.676C88.0648 90.388 87.6968 89.984 87.4248 89.464C87.1608 88.936 87.0288 88.332 87.0288 87.652ZM92.2608 87.676C92.2608 87.268 92.1808 86.92 92.0208 86.632C91.8608 86.336 91.6448 86.112 91.3728 85.96C91.1008 85.8 90.8088 85.72 90.4968 85.72C90.1848 85.72 89.8968 85.796 89.6328 85.948C89.3688 86.1 89.1528 86.324 88.9848 86.62C88.8248 86.908 88.7448 87.252 88.7448 87.652C88.7448 88.052 88.8248 88.404 88.9848 88.708C89.1528 89.004 89.3688 89.232 89.6328 89.392C89.9048 89.552 90.1928 89.632 90.4968 89.632C90.8088 89.632 91.1008 89.556 91.3728 89.404C91.6448 89.244 91.8608 89.02 92.0208 88.732C92.1808 88.436 92.2608 88.084 92.2608 87.676Z" fill="#1F1F1F"/>
<path d="M101.87 84.352V91H100.178V90.16C99.9616 90.448 99.6776 90.676 99.3256 90.844C98.9816 91.004 98.6056 91.084 98.1976 91.084C97.6776 91.084 97.2176 90.976 96.8176 90.76C96.4176 90.536 96.1016 90.212 95.8696 89.788C95.6456 89.356 95.5336 88.844 95.5336 88.252V84.352H97.2136V88.012C97.2136 88.54 97.3456 88.948 97.6096 89.236C97.8736 89.516 98.2336 89.656 98.6896 89.656C99.1536 89.656 99.5176 89.516 99.7816 89.236C100.046 88.948 100.178 88.54 100.178 88.012V84.352H101.87Z" fill="#1F1F1F"/>
<path d="M106.371 89.668C107.051 89.668 107.495 89.364 107.703 88.756H109.515C109.347 89.404 109.035 89.932 108.579 90.34C108.131 90.748 107.567 90.992 106.887 91.072V91.54C107.327 91.54 107.695 91.652 107.991 91.876C108.295 92.1 108.447 92.424 108.447 92.848C108.447 93.28 108.291 93.612 107.979 93.844C107.675 94.076 107.299 94.192 106.851 94.192H105.147V93.208H106.575C106.767 93.208 106.911 93.18 107.007 93.124C107.111 93.068 107.163 92.968 107.163 92.824C107.163 92.68 107.111 92.58 107.007 92.524C106.911 92.476 106.767 92.452 106.575 92.452H105.831V91.072C105.287 90.992 104.807 90.804 104.391 90.508C103.983 90.204 103.663 89.812 103.431 89.332C103.207 88.844 103.095 88.292 103.095 87.676C103.095 86.988 103.235 86.388 103.515 85.876C103.795 85.356 104.183 84.956 104.679 84.676C105.175 84.388 105.743 84.244 106.383 84.244C107.207 84.244 107.887 84.452 108.423 84.868C108.967 85.276 109.331 85.852 109.515 86.596H107.703C107.607 86.308 107.443 86.084 107.211 85.924C106.987 85.756 106.707 85.672 106.371 85.672C105.891 85.672 105.511 85.848 105.231 86.2C104.951 86.544 104.811 87.036 104.811 87.676C104.811 88.308 104.951 88.8 105.231 89.152C105.511 89.496 105.891 89.668 106.371 89.668Z" fill="#1F1F1F"/>
<path d="M110.314 87.652C110.314 86.98 110.446 86.384 110.71 85.864C110.982 85.344 111.346 84.944 111.802 84.664C112.266 84.384 112.782 84.244 113.35 84.244C113.846 84.244 114.278 84.344 114.646 84.544C115.022 84.744 115.322 84.996 115.546 85.3V84.352H117.238V91H115.546V90.028C115.33 90.34 115.03 90.6 114.646 90.808C114.27 91.008 113.834 91.108 113.338 91.108C112.778 91.108 112.266 90.964 111.802 90.676C111.346 90.388 110.982 89.984 110.71 89.464C110.446 88.936 110.314 88.332 110.314 87.652ZM115.546 87.676C115.546 87.268 115.466 86.92 115.306 86.632C115.146 86.336 114.93 86.112 114.658 85.96C114.386 85.8 114.094 85.72 113.782 85.72C113.47 85.72 113.182 85.796 112.918 85.948C112.654 86.1 112.438 86.324 112.27 86.62C112.11 86.908 112.03 87.252 112.03 87.652C112.03 88.052 112.11 88.404 112.27 88.708C112.438 89.004 112.654 89.232 112.918 89.392C113.19 89.552 113.478 89.632 113.782 89.632C114.094 89.632 114.386 89.556 114.658 89.404C114.93 89.244 115.146 89.02 115.306 88.732C115.466 88.436 115.546 88.084 115.546 87.676ZM111.85 83.716C111.922 83.188 112.086 82.796 112.342 82.54C112.606 82.276 112.938 82.144 113.338 82.144C113.506 82.144 113.654 82.172 113.782 82.228C113.91 82.276 114.054 82.348 114.214 82.444C114.454 82.596 114.654 82.672 114.814 82.672C115.11 82.672 115.282 82.5 115.33 82.156H116.23C116.158 82.684 115.99 83.08 115.726 83.344C115.47 83.6 115.142 83.728 114.742 83.728C114.574 83.728 114.426 83.704 114.298 83.656C114.17 83.6 114.026 83.524 113.866 83.428C113.634 83.268 113.434 83.188 113.266 83.188C112.97 83.188 112.794 83.364 112.738 83.716H111.85Z" fill="#1F1F1F"/>
<path d="M121.831 91.108C121.191 91.108 120.615 90.968 120.103 90.688C119.591 90.4 119.187 89.996 118.891 89.476C118.603 88.956 118.459 88.356 118.459 87.676C118.459 86.996 118.607 86.396 118.903 85.876C119.207 85.356 119.619 84.956 120.139 84.676C120.659 84.388 121.239 84.244 121.879 84.244C122.519 84.244 123.099 84.388 123.619 84.676C124.139 84.956 124.547 85.356 124.843 85.876C125.147 86.396 125.299 86.996 125.299 87.676C125.299 88.356 125.143 88.956 124.831 89.476C124.527 89.996 124.111 90.4 123.583 90.688C123.063 90.968 122.479 91.108 121.831 91.108ZM121.831 89.644C122.135 89.644 122.419 89.572 122.683 89.428C122.955 89.276 123.171 89.052 123.331 88.756C123.491 88.46 123.571 88.1 123.571 87.676C123.571 87.044 123.403 86.56 123.067 86.224C122.739 85.88 122.335 85.708 121.855 85.708C121.375 85.708 120.971 85.88 120.643 86.224C120.323 86.56 120.163 87.044 120.163 87.676C120.163 88.308 120.319 88.796 120.631 89.14C120.951 89.476 121.351 89.644 121.831 89.644Z" fill="#1F1F1F"/>
<path d="M22.508 108.98V111.08H25.328V112.412H22.508V114.632H25.688V116H20.828V107.612H25.688V108.98H22.508Z" fill="#1F1F1F"/>
<path d="M30.8987 109.256C31.6907 109.256 32.3307 109.508 32.8187 110.012C33.3067 110.508 33.5507 111.204 33.5507 112.1V116H31.8707V112.328C31.8707 111.8 31.7387 111.396 31.4747 111.116C31.2107 110.828 30.8507 110.684 30.3947 110.684C29.9307 110.684 29.5627 110.828 29.2907 111.116C29.0267 111.396 28.8947 111.8 28.8947 112.328V116H27.2147V109.352H28.8947V110.18C29.1187 109.892 29.4027 109.668 29.7467 109.508C30.0987 109.34 30.4827 109.256 30.8987 109.256Z" fill="#1F1F1F"/>
<path d="M37.7523 109.244C38.2483 109.244 38.6843 109.344 39.0603 109.544C39.4363 109.736 39.7323 109.988 39.9483 110.3V109.352H41.6403V116.048C41.6403 116.664 41.5163 117.212 41.2683 117.692C41.0203 118.18 40.6483 118.564 40.1523 118.844C39.6563 119.132 39.0563 119.276 38.3523 119.276C37.4083 119.276 36.6323 119.056 36.0243 118.616C35.4243 118.176 35.0843 117.576 35.0043 116.816H36.6723C36.7603 117.12 36.9483 117.36 37.2363 117.536C37.5323 117.72 37.8883 117.812 38.3043 117.812C38.7923 117.812 39.1883 117.664 39.4923 117.368C39.7963 117.08 39.9483 116.64 39.9483 116.048V115.016C39.7323 115.328 39.4323 115.588 39.0483 115.796C38.6723 116.004 38.2403 116.108 37.7523 116.108C37.1923 116.108 36.6803 115.964 36.2163 115.676C35.7523 115.388 35.3843 114.984 35.1123 114.464C34.8483 113.936 34.7163 113.332 34.7163 112.652C34.7163 111.98 34.8483 111.384 35.1123 110.864C35.3843 110.344 35.7483 109.944 36.2043 109.664C36.6683 109.384 37.1843 109.244 37.7523 109.244ZM39.9483 112.676C39.9483 112.268 39.8683 111.92 39.7083 111.632C39.5483 111.336 39.3323 111.112 39.0603 110.96C38.7883 110.8 38.4963 110.72 38.1843 110.72C37.8723 110.72 37.5843 110.796 37.3203 110.948C37.0563 111.1 36.8403 111.324 36.6723 111.62C36.5123 111.908 36.4323 112.252 36.4323 112.652C36.4323 113.052 36.5123 113.404 36.6723 113.708C36.8403 114.004 37.0563 114.232 37.3203 114.392C37.5923 114.552 37.8803 114.632 38.1843 114.632C38.4963 114.632 38.7883 114.556 39.0603 114.404C39.3323 114.244 39.5483 114.02 39.7083 113.732C39.8683 113.436 39.9483 113.084 39.9483 112.676Z" fill="#1F1F1F"/>
<path d="M44.0251 116.084C43.7211 116.084 43.4691 115.992 43.2691 115.808C43.0771 115.616 42.9811 115.38 42.9811 115.1C42.9811 114.82 43.0771 114.588 43.2691 114.404C43.4691 114.212 43.7211 114.116 44.0251 114.116C44.3211 114.116 44.5651 114.212 44.7571 114.404C44.9491 114.588 45.0451 114.82 45.0451 115.1C45.0451 115.38 44.9491 115.616 44.7571 115.808C44.5651 115.992 44.3211 116.084 44.0251 116.084Z" fill="#1F1F1F"/>
<path d="M58.3897 107.624V116H56.7097V110.552L54.4657 116H53.1937L50.9377 110.552V116H49.2577V107.624H51.1657L53.8297 113.852L56.4937 107.624H58.3897Z" fill="#1F1F1F"/>
<path d="M66.2307 112.532C66.2307 112.772 66.2147 112.988 66.1827 113.18H61.3227C61.3627 113.66 61.5307 114.036 61.8267 114.308C62.1227 114.58 62.4867 114.716 62.9187 114.716C63.5427 114.716 63.9867 114.448 64.2507 113.912H66.0627C65.8707 114.552 65.5027 115.08 64.9587 115.496C64.4147 115.904 63.7467 116.108 62.9547 116.108C62.3147 116.108 61.7387 115.968 61.2267 115.688C60.7227 115.4 60.3267 114.996 60.0387 114.476C59.7587 113.956 59.6187 113.356 59.6187 112.676C59.6187 111.988 59.7587 111.384 60.0387 110.864C60.3187 110.344 60.7107 109.944 61.2147 109.664C61.7187 109.384 62.2987 109.244 62.9547 109.244C63.5867 109.244 64.1507 109.38 64.6467 109.652C65.1507 109.924 65.5387 110.312 65.8107 110.816C66.0907 111.312 66.2307 111.884 66.2307 112.532ZM64.4907 112.052C64.4827 111.62 64.3267 111.276 64.0227 111.02C63.7187 110.756 63.3467 110.624 62.9067 110.624C62.4907 110.624 62.1387 110.752 61.8507 111.008C61.5707 111.256 61.3987 111.604 61.3347 112.052H64.4907Z" fill="#1F1F1F"/>
<path d="M67.0249 112.676C67.0249 111.988 67.1649 111.388 67.4449 110.876C67.7249 110.356 68.1129 109.956 68.6089 109.676C69.1049 109.388 69.6729 109.244 70.3129 109.244C71.1369 109.244 71.8169 109.452 72.3529 109.868C72.8969 110.276 73.2609 110.852 73.4449 111.596H71.6329C71.5369 111.308 71.3729 111.084 71.1409 110.924C70.9169 110.756 70.6369 110.672 70.3009 110.672C69.8209 110.672 69.4409 110.848 69.1609 111.2C68.8809 111.544 68.7409 112.036 68.7409 112.676C68.7409 113.308 68.8809 113.8 69.1609 114.152C69.4409 114.496 69.8209 114.668 70.3009 114.668C70.9809 114.668 71.4249 114.364 71.6329 113.756H73.4449C73.2609 114.476 72.8969 115.048 72.3529 115.472C71.8089 115.896 71.1289 116.108 70.3129 116.108C69.6729 116.108 69.1049 115.968 68.6089 115.688C68.1129 115.4 67.7249 115 67.4449 114.488C67.1649 113.968 67.0249 113.364 67.0249 112.676Z" fill="#1F1F1F"/>
<path d="M74.2437 112.652C74.2437 111.98 74.3757 111.384 74.6397 110.864C74.9117 110.344 75.2757 109.944 75.7317 109.664C76.1957 109.384 76.7117 109.244 77.2797 109.244C77.7757 109.244 78.2077 109.344 78.5757 109.544C78.9517 109.744 79.2517 109.996 79.4757 110.3V109.352H81.1677V116H79.4757V115.028C79.2597 115.34 78.9597 115.6 78.5757 115.808C78.1997 116.008 77.7637 116.108 77.2677 116.108C76.7077 116.108 76.1957 115.964 75.7317 115.676C75.2757 115.388 74.9117 114.984 74.6397 114.464C74.3757 113.936 74.2437 113.332 74.2437 112.652ZM79.4757 112.676C79.4757 112.268 79.3957 111.92 79.2357 111.632C79.0757 111.336 78.8597 111.112 78.5877 110.96C78.3157 110.8 78.0237 110.72 77.7117 110.72C77.3997 110.72 77.1117 110.796 76.8477 110.948C76.5837 111.1 76.3677 111.324 76.1997 111.62C76.0397 111.908 75.9597 112.252 75.9597 112.652C75.9597 113.052 76.0397 113.404 76.1997 113.708C76.3677 114.004 76.5837 114.232 76.8477 114.392C77.1197 114.552 77.4077 114.632 77.7117 114.632C78.0237 114.632 78.3157 114.556 78.5877 114.404C78.8597 114.244 79.0757 114.02 79.2357 113.732C79.3957 113.436 79.4757 113.084 79.4757 112.676ZM77.9397 107.876L76.1517 108.884V107.66L77.9397 106.688L79.7157 107.66V108.884L77.9397 107.876Z" fill="#1F1F1F"/>
<path d="M86.4925 109.256C87.2845 109.256 87.9245 109.508 88.4125 110.012C88.9005 110.508 89.1445 111.204 89.1445 112.1V116H87.4645V112.328C87.4645 111.8 87.3325 111.396 87.0685 111.116C86.8045 110.828 86.4445 110.684 85.9885 110.684C85.5245 110.684 85.1565 110.828 84.8845 111.116C84.6205 111.396 84.4885 111.8 84.4885 112.328V116H82.8085V109.352H84.4885V110.18C84.7125 109.892 84.9965 109.668 85.3405 109.508C85.6925 109.34 86.0765 109.256 86.4925 109.256Z" fill="#1F1F1F"/>
<path d="M91.5941 108.56C91.2981 108.56 91.0501 108.468 90.8501 108.284C90.6581 108.092 90.5621 107.856 90.5621 107.576C90.5621 107.296 90.6581 107.064 90.8501 106.88C91.0501 106.688 91.2981 106.592 91.5941 106.592C91.8901 106.592 92.1341 106.688 92.3261 106.88C92.5261 107.064 92.6261 107.296 92.6261 107.576C92.6261 107.856 92.5261 108.092 92.3261 108.284C92.1341 108.468 91.8901 108.56 91.5941 108.56ZM92.4221 109.352V116H90.7421V109.352H92.4221Z" fill="#1F1F1F"/>
<path d="M93.6499 112.676C93.6499 111.988 93.7899 111.388 94.0699 110.876C94.3499 110.356 94.7379 109.956 95.2339 109.676C95.7299 109.388 96.2979 109.244 96.9379 109.244C97.7619 109.244 98.4419 109.452 98.9779 109.868C99.5219 110.276 99.8859 110.852 100.07 111.596H98.2579C98.1619 111.308 97.9979 111.084 97.7659 110.924C97.5419 110.756 97.2619 110.672 96.9259 110.672C96.4459 110.672 96.0659 110.848 95.7859 111.2C95.5059 111.544 95.3659 112.036 95.3659 112.676C95.3659 113.308 95.5059 113.8 95.7859 114.152C96.0659 114.496 96.4459 114.668 96.9259 114.668C97.6059 114.668 98.0499 114.364 98.2579 113.756H100.07C99.8859 114.476 99.5219 115.048 98.9779 115.472C98.4339 115.896 97.7539 116.108 96.9379 116.108C96.2979 116.108 95.7299 115.968 95.2339 115.688C94.7379 115.4 94.3499 115 94.0699 114.488C93.7899 113.968 93.6499 113.364 93.6499 112.676Z" fill="#1F1F1F"/>
<path d="M100.869 112.652C100.869 111.98 101.001 111.384 101.265 110.864C101.537 110.344 101.901 109.944 102.357 109.664C102.821 109.384 103.337 109.244 103.905 109.244C104.401 109.244 104.833 109.344 105.201 109.544C105.577 109.744 105.877 109.996 106.101 110.3V109.352H107.793V116H106.101V115.028C105.885 115.34 105.585 115.6 105.201 115.808C104.825 116.008 104.389 116.108 103.893 116.108C103.333 116.108 102.821 115.964 102.357 115.676C101.901 115.388 101.537 114.984 101.265 114.464C101.001 113.936 100.869 113.332 100.869 112.652ZM106.101 112.676C106.101 112.268 106.021 111.92 105.861 111.632C105.701 111.336 105.485 111.112 105.213 110.96C104.941 110.8 104.649 110.72 104.337 110.72C104.025 110.72 103.737 110.796 103.473 110.948C103.209 111.1 102.993 111.324 102.825 111.62C102.665 111.908 102.585 112.252 102.585 112.652C102.585 113.052 102.665 113.404 102.825 113.708C102.993 114.004 103.209 114.232 103.473 114.392C103.745 114.552 104.033 114.632 104.337 114.632C104.649 114.632 104.941 114.556 105.213 114.404C105.485 114.244 105.701 114.02 105.861 113.732C106.021 113.436 106.101 113.084 106.101 112.676Z" fill="#1F1F1F"/>
<path d="M22.508 133.98V136.08H25.328V137.412H22.508V139.632H25.688V141H20.828V132.612H25.688V133.98H22.508Z" fill="#1F1F1F"/>
<path d="M30.8987 134.256C31.6907 134.256 32.3307 134.508 32.8187 135.012C33.3067 135.508 33.5507 136.204 33.5507 137.1V141H31.8707V137.328C31.8707 136.8 31.7387 136.396 31.4747 136.116C31.2107 135.828 30.8507 135.684 30.3947 135.684C29.9307 135.684 29.5627 135.828 29.2907 136.116C29.0267 136.396 28.8947 136.8 28.8947 137.328V141H27.2147V134.352H28.8947V135.18C29.1187 134.892 29.4027 134.668 29.7467 134.508C30.0987 134.34 30.4827 134.256 30.8987 134.256Z" fill="#1F1F1F"/>
<path d="M37.7523 134.244C38.2483 134.244 38.6843 134.344 39.0603 134.544C39.4363 134.736 39.7323 134.988 39.9483 135.3V134.352H41.6403V141.048C41.6403 141.664 41.5163 142.212 41.2683 142.692C41.0203 143.18 40.6483 143.564 40.1523 143.844C39.6563 144.132 39.0563 144.276 38.3523 144.276C37.4083 144.276 36.6323 144.056 36.0243 143.616C35.4243 143.176 35.0843 142.576 35.0043 141.816H36.6723C36.7603 142.12 36.9483 142.36 37.2363 142.536C37.5323 142.72 37.8883 142.812 38.3043 142.812C38.7923 142.812 39.1883 142.664 39.4923 142.368C39.7963 142.08 39.9483 141.64 39.9483 141.048V140.016C39.7323 140.328 39.4323 140.588 39.0483 140.796C38.6723 141.004 38.2403 141.108 37.7523 141.108C37.1923 141.108 36.6803 140.964 36.2163 140.676C35.7523 140.388 35.3843 139.984 35.1123 139.464C34.8483 138.936 34.7163 138.332 34.7163 137.652C34.7163 136.98 34.8483 136.384 35.1123 135.864C35.3843 135.344 35.7483 134.944 36.2043 134.664C36.6683 134.384 37.1843 134.244 37.7523 134.244ZM39.9483 137.676C39.9483 137.268 39.8683 136.92 39.7083 136.632C39.5483 136.336 39.3323 136.112 39.0603 135.96C38.7883 135.8 38.4963 135.72 38.1843 135.72C37.8723 135.72 37.5843 135.796 37.3203 135.948C37.0563 136.1 36.8403 136.324 36.6723 136.62C36.5123 136.908 36.4323 137.252 36.4323 137.652C36.4323 138.052 36.5123 138.404 36.6723 138.708C36.8403 139.004 37.0563 139.232 37.3203 139.392C37.5923 139.552 37.8803 139.632 38.1843 139.632C38.4963 139.632 38.7883 139.556 39.0603 139.404C39.3323 139.244 39.5483 139.02 39.7083 138.732C39.8683 138.436 39.9483 138.084 39.9483 137.676Z" fill="#1F1F1F"/>
<path d="M44.0251 141.084C43.7211 141.084 43.4691 140.992 43.2691 140.808C43.0771 140.616 42.9811 140.38 42.9811 140.1C42.9811 139.82 43.0771 139.588 43.2691 139.404C43.4691 139.212 43.7211 139.116 44.0251 139.116C44.3211 139.116 44.5651 139.212 44.7571 139.404C44.9491 139.588 45.0451 139.82 45.0451 140.1C45.0451 140.38 44.9491 140.616 44.7571 140.808C44.5651 140.992 44.3211 141.084 44.0251 141.084Z" fill="#1F1F1F"/>
<path d="M50.9377 133.98V136.08H53.7577V137.412H50.9377V139.632H54.1177V141H49.2577V132.612H54.1177V133.98H50.9377Z" fill="#1F1F1F"/>
<path d="M57.3244 132.12V141H55.6444V132.12H57.3244Z" fill="#1F1F1F"/>
<path d="M65.1643 137.532C65.1643 137.772 65.1482 137.988 65.1162 138.18H60.2562C60.2962 138.66 60.4643 139.036 60.7603 139.308C61.0563 139.58 61.4202 139.716 61.8522 139.716C62.4762 139.716 62.9202 139.448 63.1842 138.912H64.9963C64.8043 139.552 64.4362 140.08 63.8923 140.496C63.3483 140.904 62.6802 141.108 61.8882 141.108C61.2482 141.108 60.6723 140.968 60.1603 140.688C59.6563 140.4 59.2603 139.996 58.9723 139.476C58.6923 138.956 58.5522 138.356 58.5522 137.676C58.5522 136.988 58.6923 136.384 58.9723 135.864C59.2523 135.344 59.6443 134.944 60.1483 134.664C60.6523 134.384 61.2322 134.244 61.8882 134.244C62.5202 134.244 63.0842 134.38 63.5802 134.652C64.0842 134.924 64.4722 135.312 64.7442 135.816C65.0242 136.312 65.1643 136.884 65.1643 137.532ZM63.4243 137.052C63.4163 136.62 63.2602 136.276 62.9562 136.02C62.6522 135.756 62.2803 135.624 61.8403 135.624C61.4243 135.624 61.0722 135.752 60.7842 136.008C60.5042 136.256 60.3322 136.604 60.2682 137.052H63.4243ZM63.1722 132.6L60.4123 133.86V132.66L63.1722 131.232V132.6Z" fill="#1F1F1F"/>
<path d="M68.3465 135.732V138.948C68.3465 139.172 68.3985 139.336 68.5025 139.44C68.6145 139.536 68.7985 139.584 69.0545 139.584H69.8345V141H68.7785C67.3625 141 66.6545 140.312 66.6545 138.936V135.732H65.8625V134.352H66.6545V132.708H68.3465V134.352H69.8345V135.732H68.3465Z" fill="#1F1F1F"/>
<path d="M72.7228 135.384C72.9388 135.032 73.2188 134.756 73.5628 134.556C73.9148 134.356 74.3148 134.256 74.7628 134.256V136.02H74.3188C73.7908 136.02 73.3908 136.144 73.1188 136.392C72.8548 136.64 72.7228 137.072 72.7228 137.688V141H71.0428V134.352H72.7228V135.384Z" fill="#1F1F1F"/>
<path d="M76.7464 133.56C76.4504 133.56 76.2024 133.468 76.0024 133.284C75.8104 133.092 75.7144 132.856 75.7144 132.576C75.7144 132.296 75.8104 132.064 76.0024 131.88C76.2024 131.688 76.4504 131.592 76.7464 131.592C77.0424 131.592 77.2864 131.688 77.4784 131.88C77.6784 132.064 77.7784 132.296 77.7784 132.576C77.7784 132.856 77.6784 133.092 77.4784 133.284C77.2864 133.468 77.0424 133.56 76.7464 133.56ZM77.5744 134.352V141H75.8944V134.352H77.5744Z" fill="#1F1F1F"/>
</svg>