<svg width="700" height="700" viewBox="0 0 700 700" fill="none" xmlns="http://www.w3.org/2000/svg">
<circle cx="350" cy="350" r="350" fill="#3F005E"/>
<g filter="url(#filter0_d_5_186)">
<path d="M353 227.334C351.132 196.318 327.88 162.014 314.23 145.949C312.906 144.392 313.428 141.979 315.327 141.224C346.474 128.834 375.103 134.881 389.018 140.905C390.964 141.747 391.221 144.308 389.647 145.731C360.436 172.141 353 210.784 353 227.334Z" fill="white"/>
</g>
<path d="M366.578 305.101C362.666 328.486 356.709 344.758 353.25 352.048C352.581 353.458 351.008 353.784 350.229 352.431C345.908 344.929 339.723 319.668 336.484 304.752C336.194 303.42 335.05 302.451 333.687 302.411C309.903 301.712 296.038 308.108 292 311.5L298.607 321.19C299.166 322.01 300.094 322.5 301.086 322.5H316.358C317.868 322.5 319.157 323.643 319.259 325.15C322.002 365.668 266.81 384.12 235.576 387.206C233.711 387.391 232.202 385.781 232.424 383.921C236.969 345.866 239.677 332.5 240 332.5C243.6 306.1 255.833 284.833 261.5 277.5C295 240.5 339.5 235 352 235C364.5 235 421.5 246 440 279.5C454.22 305.25 463.424 357.372 466.637 383C466.845 384.659 465.597 386.148 463.932 386.29C395.94 392.054 379.061 349.466 378.943 324.742C378.935 323.186 380.193 321.953 381.748 321.892L402.879 321.064C403.891 321.024 404.814 320.477 405.334 319.609L410.5 311C406.386 305.389 383.005 303.131 369.631 302.589C368.125 302.528 366.827 303.614 366.578 305.101Z" fill="white"/>
<path d="M232 462C232 442.959 237.137 412.133 240.074 397.14C240.325 395.858 241.404 394.905 242.701 394.746C293.469 388.499 319.213 358.8 327.893 342.359C329.082 340.106 332.444 339.858 333.703 342.073C338.799 351.04 346.348 364 351.5 364C356.546 364 363.892 354.054 368.245 346.17C369.466 343.957 372.865 343.789 374.08 346.005C376.938 351.221 380.127 357.591 379 359C377 361.5 353.5 378.5 314 391C282.4 401 264.556 410 262 433C259.577 454.811 303.264 486.962 321.291 493.641C322.795 494.198 323.745 495.756 323.404 497.323C313.902 541.083 297.002 560.393 288.181 565.625C287.185 566.216 285.924 566.005 285.054 565.24C238.369 524.232 232 486.747 232 462Z" fill="white"/>
<path d="M413.237 564.883C392.812 562.335 382.903 521.03 379.311 497.59C379.119 496.336 379.748 495.116 380.815 494.429C388.987 489.164 403.817 474.399 415.222 456.558C426.36 439.133 426.841 411.438 425.851 396.326C425.714 394.233 427.674 392.548 429.737 392.932C436.663 394.22 447.696 395.425 457.288 395.128C458.829 395.08 460.192 396.151 460.425 397.675C465.206 428.967 468.982 494.274 450.466 526.586C431.404 559.85 417.704 565.977 413.237 564.883Z" fill="white"/>
<defs>
<filter id="filter0_d_5_186" x="309.495" y="134" width="85.179" height="101.334" filterUnits="userSpaceOnUse" color-interpolation-filters="sRGB">
<feFlood flood-opacity="0" result="BackgroundImageFix"/>
<feColorMatrix in="SourceAlpha" type="matrix" values="0 0 0 0 0 0 0 0 0 0 0 0 0 0 0 0 0 0 127 0" result="hardAlpha"/>
<feOffset dy="4"/>
<feGaussianBlur stdDeviation="2"/>
<feComposite in2="hardAlpha" operator="out"/>
<feColorMatrix type="matrix" values="0 0 0 0 0 0 0 0 0 0 0 0 0 0 0 0 0 0 0.25 0"/>
<feBlend mode="normal" in2="BackgroundImageFix" result="effect1_dropShadow_5_186"/>
<feBlend mode="normal" in="SourceGraphic" in2="effect1_dropShadow_5_186" result="shape"/>
</filter>
</defs>
</svg>