<svg width="378" height="337" viewBox="0 0 378 337" fill="none" xmlns="http://www.w3.org/2000/svg">
<path d="M91.1 331.368C90.3 330.952 89.9 330.308 89.9 329.436C89.9 329.004 90.008 328.612 90.224 328.26C90.448 327.9 90.78 327.616 91.22 327.408C91.668 327.192 92.212 327.084 92.852 327.084C93.492 327.084 94.032 327.192 94.472 327.408C94.92 327.616 95.252 327.9 95.468 328.26C95.692 328.612 95.804 329.004 95.804 329.436C95.804 329.876 95.696 330.264 95.48 330.6C95.264 330.928 94.976 331.184 94.616 331.368C95.056 331.56 95.4 331.84 95.648 332.208C95.896 332.576 96.02 333.012 96.02 333.516C96.02 334.06 95.88 334.536 95.6 334.944C95.328 335.344 94.952 335.652 94.472 335.868C93.992 336.084 93.452 336.192 92.852 336.192C92.252 336.192 91.712 336.084 91.232 335.868C90.76 335.652 90.384 335.344 90.104 334.944C89.832 334.536 89.696 334.06 89.696 333.516C89.696 333.012 89.82 332.576 90.068 332.208C90.316 331.832 90.66 331.552 91.1 331.368ZM94.172 329.676C94.172 329.284 94.052 328.98 93.812 328.764C93.58 328.548 93.26 328.44 92.852 328.44C92.452 328.44 92.132 328.548 91.892 328.764C91.66 328.98 91.544 329.288 91.544 329.688C91.544 330.048 91.664 330.336 91.904 330.552C92.152 330.768 92.468 330.876 92.852 330.876C93.236 330.876 93.552 330.768 93.8 330.552C94.048 330.328 94.172 330.036 94.172 329.676ZM92.852 332.1C92.396 332.1 92.024 332.216 91.736 332.448C91.456 332.68 91.316 333.012 91.316 333.444C91.316 333.844 91.452 334.172 91.724 334.428C92.004 334.676 92.38 334.8 92.852 334.8C93.324 334.8 93.696 334.672 93.968 334.416C94.24 334.16 94.376 333.836 94.376 333.444C94.376 333.02 94.236 332.692 93.956 332.46C93.676 332.22 93.308 332.1 92.852 332.1Z" fill="#1F1F1F"/>
<path d="M102.915 328.524L99.7229 336H98.0189L101.235 328.716H97.1309V327.276H102.915V328.524Z" fill="#1F1F1F"/>
<path d="M104.857 336.084C104.553 336.084 104.301 335.992 104.101 335.808C103.909 335.616 103.813 335.38 103.813 335.1C103.813 334.82 103.909 334.588 104.101 334.404C104.301 334.212 104.553 334.116 104.857 334.116C105.153 334.116 105.397 334.212 105.589 334.404C105.781 334.588 105.877 334.82 105.877 335.1C105.877 335.38 105.781 335.616 105.589 335.808C105.397 335.992 105.153 336.084 104.857 336.084Z" fill="#1F1F1F"/>
<path d="M112.606 328.524L109.414 336H107.71L110.926 328.716H106.822V327.276H112.606V328.524Z" fill="#1F1F1F"/>
<path d="M113.421 329.4C113.421 328.792 113.597 328.316 113.949 327.972C114.309 327.628 114.769 327.456 115.329 327.456C115.889 327.456 116.345 327.628 116.697 327.972C117.057 328.316 117.237 328.792 117.237 329.4C117.237 330.016 117.057 330.496 116.697 330.84C116.345 331.184 115.889 331.356 115.329 331.356C114.769 331.356 114.309 331.184 113.949 330.84C113.597 330.496 113.421 330.016 113.421 329.4ZM121.125 327.6L116.409 336H114.777L119.481 327.6H121.125ZM115.317 328.464C114.877 328.464 114.657 328.776 114.657 329.4C114.657 330.032 114.877 330.348 115.317 330.348C115.533 330.348 115.701 330.272 115.821 330.12C115.941 329.96 116.001 329.72 116.001 329.4C116.001 328.776 115.773 328.464 115.317 328.464ZM118.689 334.188C118.689 333.572 118.865 333.096 119.217 332.76C119.577 332.416 120.037 332.244 120.597 332.244C121.157 332.244 121.609 332.416 121.953 332.76C122.305 333.096 122.481 333.572 122.481 334.188C122.481 334.804 122.305 335.284 121.953 335.628C121.609 335.972 121.157 336.144 120.597 336.144C120.029 336.144 119.569 335.972 119.217 335.628C118.865 335.284 118.689 334.804 118.689 334.188ZM120.585 333.252C120.129 333.252 119.901 333.564 119.901 334.188C119.901 334.82 120.129 335.136 120.585 335.136C121.033 335.136 121.257 334.82 121.257 334.188C121.257 333.564 121.033 333.252 120.585 333.252Z" fill="#1F1F1F"/>
<path d="M13.432 25.8V24.252H16.324V33H14.596V25.8H13.432Z" fill="#1F1F1F"/>
<path d="M18.5117 31.104C19.2797 30.464 19.8917 29.932 20.3477 29.508C20.8037 29.076 21.1837 28.628 21.4877 28.164C21.7917 27.7 21.9437 27.244 21.9437 26.796C21.9437 26.388 21.8477 26.068 21.6557 25.836C21.4637 25.604 21.1677 25.488 20.7677 25.488C20.3677 25.488 20.0597 25.624 19.8437 25.896C19.6277 26.16 19.5157 26.524 19.5077 26.988H17.8757C17.9077 26.028 18.1917 25.3 18.7277 24.804C19.2717 24.308 19.9597 24.06 20.7917 24.06C21.7037 24.06 22.4037 24.304 22.8917 24.792C23.3797 25.272 23.6237 25.908 23.6237 26.7C23.6237 27.324 23.4557 27.92 23.1197 28.488C22.7837 29.056 22.3997 29.552 21.9677 29.976C21.5357 30.392 20.9717 30.896 20.2757 31.488H23.8157V32.88H17.8877V31.632L18.5117 31.104Z" fill="#1F1F1F"/>
<path d="M25.8103 33.084C25.5063 33.084 25.2543 32.992 25.0543 32.808C24.8623 32.616 24.7663 32.38 24.7663 32.1C24.7663 31.82 24.8623 31.588 25.0543 31.404C25.2543 31.212 25.5063 31.116 25.8103 31.116C26.1063 31.116 26.3503 31.212 26.5423 31.404C26.7343 31.588 26.8303 31.82 26.8303 32.1C26.8303 32.38 26.7343 32.616 26.5423 32.808C26.3503 32.992 26.1063 33.084 25.8103 33.084Z" fill="#1F1F1F"/>
<path d="M28.0155 26.556C28.0555 25.756 28.3355 25.14 28.8555 24.708C29.3835 24.268 30.0755 24.048 30.9315 24.048C31.5155 24.048 32.0155 24.152 32.4315 24.36C32.8475 24.56 33.1595 24.836 33.3675 25.188C33.5835 25.532 33.6915 25.924 33.6915 26.364C33.6915 26.868 33.5595 27.296 33.2955 27.648C33.0395 27.992 32.7315 28.224 32.3715 28.344V28.392C32.8355 28.536 33.1955 28.792 33.4515 29.16C33.7155 29.528 33.8475 30 33.8475 30.576C33.8475 31.056 33.7355 31.484 33.5115 31.86C33.2955 32.236 32.9715 32.532 32.5395 32.748C32.1155 32.956 31.6035 33.06 31.0035 33.06C30.0995 33.06 29.3635 32.832 28.7955 32.376C28.2275 31.92 27.9275 31.248 27.8955 30.36H29.5275C29.5435 30.752 29.6755 31.068 29.9235 31.308C30.1795 31.54 30.5275 31.656 30.9675 31.656C31.3755 31.656 31.6875 31.544 31.9035 31.32C32.1275 31.088 32.2395 30.792 32.2395 30.432C32.2395 29.952 32.0875 29.608 31.7835 29.4C31.4795 29.192 31.0075 29.088 30.3675 29.088H30.0195V27.708H30.3675C31.5035 27.708 32.0715 27.328 32.0715 26.568C32.0715 26.224 31.9675 25.956 31.7595 25.764C31.5595 25.572 31.2675 25.476 30.8835 25.476C30.5075 25.476 30.2155 25.58 30.0075 25.788C29.8075 25.988 29.6915 26.244 29.6595 26.556H28.0155Z" fill="#1F1F1F"/>
<path d="M34.9831 26.4C34.9831 25.792 35.1591 25.316 35.5111 24.972C35.8711 24.628 36.3311 24.456 36.8911 24.456C37.4511 24.456 37.9071 24.628 38.2591 24.972C38.6191 25.316 38.7991 25.792 38.7991 26.4C38.7991 27.016 38.6191 27.496 38.2591 27.84C37.9071 28.184 37.4511 28.356 36.8911 28.356C36.3311 28.356 35.8711 28.184 35.5111 27.84C35.1591 27.496 34.9831 27.016 34.9831 26.4ZM42.6871 24.6L37.9711 33H36.3391L41.0431 24.6H42.6871ZM36.8791 25.464C36.4391 25.464 36.2191 25.776 36.2191 26.4C36.2191 27.032 36.4391 27.348 36.8791 27.348C37.0951 27.348 37.2631 27.272 37.3831 27.12C37.5031 26.96 37.5631 26.72 37.5631 26.4C37.5631 25.776 37.3351 25.464 36.8791 25.464ZM40.2511 31.188C40.2511 30.572 40.4271 30.096 40.7791 29.76C41.1391 29.416 41.5991 29.244 42.1591 29.244C42.7191 29.244 43.1711 29.416 43.5151 29.76C43.8671 30.096 44.0431 30.572 44.0431 31.188C44.0431 31.804 43.8671 32.284 43.5151 32.628C43.1711 32.972 42.7191 33.144 42.1591 33.144C41.5911 33.144 41.1311 32.972 40.7791 32.628C40.4271 32.284 40.2511 31.804 40.2511 31.188ZM42.1471 30.252C41.6911 30.252 41.4631 30.564 41.4631 31.188C41.4631 31.82 41.6911 32.136 42.1471 32.136C42.5951 32.136 42.8191 31.82 42.8191 31.188C42.8191 30.564 42.5951 30.252 42.1471 30.252Z" fill="#1F1F1F"/>
<path d="M252.38 148V23C321.415 23 377.38 78.9644 377.38 148C377.38 217.036 321.415 273 252.38 273C183.344 273 127.38 217.036 127.38 148C127.38 114.303 140.984 82.0338 165.109 58.5079L252.38 148Z" fill="#A4A4A4"/>
<path d="M252.38 148L165.109 58.5079C188.454 35.7421 219.772 23 252.38 23V148Z" fill="#3F005E"/>
<path d="M63 5C63 2.23858 65.2386 0 68 0H78C80.7614 0 83 2.23858 83 5V15C83 17.7614 80.7614 20 78 20H68C65.2386 20 63 17.7614 63 15V5Z" fill="#3F005E"/>
<path d="M142 308C142 305.239 144.239 303 147 303H157C159.761 303 162 305.239 162 308V318C162 320.761 159.761 323 157 323H147C144.239 323 142 320.761 142 318V308Z" fill="#A4A4A4"/>
<path d="M6 5.624V6.98H2.508V9.128H5.184V10.46H2.508V14H0.828003V5.624H6Z" fill="#1F1F1F"/>
<path d="M13.3713 10.532C13.3713 10.772 13.3553 10.988 13.3233 11.18H8.46328C8.50328 11.66 8.67128 12.036 8.96728 12.308C9.26328 12.58 9.62728 12.716 10.0593 12.716C10.6833 12.716 11.1273 12.448 11.3913 11.912H13.2033C13.0113 12.552 12.6433 13.08 12.0993 13.496C11.5553 13.904 10.8873 14.108 10.0953 14.108C9.45528 14.108 8.87928 13.968 8.36728 13.688C7.86328 13.4 7.46728 12.996 7.17928 12.476C6.89928 11.956 6.75928 11.356 6.75928 10.676C6.75928 9.988 6.89928 9.384 7.17928 8.864C7.45928 8.344 7.85128 7.944 8.35528 7.664C8.85928 7.384 9.43928 7.244 10.0953 7.244C10.7273 7.244 11.2913 7.38 11.7873 7.652C12.2913 7.924 12.6793 8.312 12.9513 8.816C13.2313 9.312 13.3713 9.884 13.3713 10.532ZM11.6313 10.052C11.6233 9.62 11.4673 9.276 11.1633 9.02C10.8593 8.756 10.4873 8.624 10.0473 8.624C9.63128 8.624 9.27928 8.752 8.99128 9.008C8.71128 9.256 8.53928 9.604 8.47528 10.052H11.6313Z" fill="#1F1F1F"/>
<path d="M22.8535 7.256C23.6695 7.256 24.3255 7.508 24.8215 8.012C25.3255 8.508 25.5775 9.204 25.5775 10.1V14H23.8975V10.328C23.8975 9.808 23.7655 9.412 23.5015 9.14C23.2375 8.86 22.8775 8.72 22.4215 8.72C21.9655 8.72 21.6015 8.86 21.3295 9.14C21.0655 9.412 20.9335 9.808 20.9335 10.328V14H19.2535V10.328C19.2535 9.808 19.1215 9.412 18.8575 9.14C18.5935 8.86 18.2335 8.72 17.7775 8.72C17.3135 8.72 16.9455 8.86 16.6735 9.14C16.4095 9.412 16.2775 9.808 16.2775 10.328V14H14.5975V7.352H16.2775V8.156C16.4935 7.876 16.7695 7.656 17.1055 7.496C17.4495 7.336 17.8255 7.256 18.2335 7.256C18.7535 7.256 19.2175 7.368 19.6255 7.592C20.0335 7.808 20.3495 8.12 20.5735 8.528C20.7895 8.144 21.1015 7.836 21.5095 7.604C21.9255 7.372 22.3735 7.256 22.8535 7.256Z" fill="#1F1F1F"/>
<path d="M28.0238 6.56C27.7278 6.56 27.4798 6.468 27.2798 6.284C27.0878 6.092 26.9918 5.856 26.9918 5.576C26.9918 5.296 27.0878 5.064 27.2798 4.88C27.4798 4.688 27.7278 4.592 28.0238 4.592C28.3198 4.592 28.5638 4.688 28.7558 4.88C28.9558 5.064 29.0558 5.296 29.0558 5.576C29.0558 5.856 28.9558 6.092 28.7558 6.284C28.5638 6.468 28.3198 6.56 28.0238 6.56ZM28.8518 7.352V14H27.1718V7.352H28.8518Z" fill="#1F1F1F"/>
<path d="M34.1956 7.256C34.9876 7.256 35.6276 7.508 36.1156 8.012C36.6036 8.508 36.8476 9.204 36.8476 10.1V14H35.1676V10.328C35.1676 9.8 35.0356 9.396 34.7716 9.116C34.5076 8.828 34.1476 8.684 33.6916 8.684C33.2276 8.684 32.8596 8.828 32.5876 9.116C32.3236 9.396 32.1916 9.8 32.1916 10.328V14H30.5116V7.352H32.1916V8.18C32.4156 7.892 32.6996 7.668 33.0436 7.508C33.3956 7.34 33.7796 7.256 34.1956 7.256Z" fill="#1F1F1F"/>
<path d="M39.2972 6.56C39.0012 6.56 38.7532 6.468 38.5532 6.284C38.3612 6.092 38.2652 5.856 38.2652 5.576C38.2652 5.296 38.3612 5.064 38.5532 4.88C38.7532 4.688 39.0012 4.592 39.2972 4.592C39.5932 4.592 39.8372 4.688 40.0292 4.88C40.2292 5.064 40.3292 5.296 40.3292 5.576C40.3292 5.856 40.2292 6.092 40.0292 6.284C39.8372 6.468 39.5932 6.56 39.2972 6.56ZM40.1252 7.352V14H38.4452V7.352H40.1252Z" fill="#1F1F1F"/>
<path d="M45.469 7.256C46.261 7.256 46.901 7.508 47.389 8.012C47.877 8.508 48.121 9.204 48.121 10.1V14H46.441V10.328C46.441 9.8 46.309 9.396 46.045 9.116C45.781 8.828 45.421 8.684 44.965 8.684C44.501 8.684 44.133 8.828 43.861 9.116C43.597 9.396 43.465 9.8 43.465 10.328V14H41.785V7.352H43.465V8.18C43.689 7.892 43.973 7.668 44.317 7.508C44.669 7.34 45.053 7.256 45.469 7.256Z" fill="#1F1F1F"/>
<path d="M52.6706 14.108C52.0306 14.108 51.4546 13.968 50.9426 13.688C50.4306 13.4 50.0266 12.996 49.7306 12.476C49.4426 11.956 49.2986 11.356 49.2986 10.676C49.2986 9.996 49.4466 9.396 49.7426 8.876C50.0466 8.356 50.4586 7.956 50.9786 7.676C51.4986 7.388 52.0786 7.244 52.7186 7.244C53.3586 7.244 53.9386 7.388 54.4586 7.676C54.9786 7.956 55.3866 8.356 55.6826 8.876C55.9866 9.396 56.1386 9.996 56.1386 10.676C56.1386 11.356 55.9826 11.956 55.6706 12.476C55.3666 12.996 54.9506 13.4 54.4226 13.688C53.9026 13.968 53.3186 14.108 52.6706 14.108ZM52.6706 12.644C52.9746 12.644 53.2586 12.572 53.5226 12.428C53.7946 12.276 54.0106 12.052 54.1706 11.756C54.3306 11.46 54.4106 11.1 54.4106 10.676C54.4106 10.044 54.2426 9.56 53.9066 9.224C53.5786 8.88 53.1746 8.708 52.6946 8.708C52.2146 8.708 51.8106 8.88 51.4826 9.224C51.1626 9.56 51.0026 10.044 51.0026 10.676C51.0026 11.308 51.1586 11.796 51.4706 12.14C51.7906 12.476 52.1906 12.644 52.6706 12.644Z" fill="#1F1F1F"/>
<path d="M81.96 308.624V317H80.28V311.552L78.036 317H76.764L74.508 311.552V317H72.828V308.624H74.736L77.4 314.852L80.064 308.624H81.96Z" fill="#1F1F1F"/>
<path d="M83.189 313.652C83.189 312.98 83.321 312.384 83.585 311.864C83.857 311.344 84.221 310.944 84.677 310.664C85.141 310.384 85.657 310.244 86.225 310.244C86.721 310.244 87.153 310.344 87.521 310.544C87.897 310.744 88.197 310.996 88.421 311.3V310.352H90.113V317H88.421V316.028C88.205 316.34 87.905 316.6 87.521 316.808C87.145 317.008 86.709 317.108 86.213 317.108C85.653 317.108 85.141 316.964 84.677 316.676C84.221 316.388 83.857 315.984 83.585 315.464C83.321 314.936 83.189 314.332 83.189 313.652ZM88.421 313.676C88.421 313.268 88.341 312.92 88.181 312.632C88.021 312.336 87.805 312.112 87.533 311.96C87.261 311.8 86.969 311.72 86.657 311.72C86.345 311.72 86.057 311.796 85.793 311.948C85.529 312.1 85.313 312.324 85.145 312.62C84.985 312.908 84.905 313.252 84.905 313.652C84.905 314.052 84.985 314.404 85.145 314.708C85.313 315.004 85.529 315.232 85.793 315.392C86.065 315.552 86.353 315.632 86.657 315.632C86.969 315.632 87.261 315.556 87.533 315.404C87.805 315.244 88.021 315.02 88.181 314.732C88.341 314.436 88.421 314.084 88.421 313.676Z" fill="#1F1F1F"/>
<path d="M94.2978 317.108C93.7538 317.108 93.2658 317.012 92.8338 316.82C92.4018 316.62 92.0578 316.352 91.8018 316.016C91.5538 315.68 91.4178 315.308 91.3938 314.9H93.0858C93.1178 315.156 93.2418 315.368 93.4578 315.536C93.6818 315.704 93.9578 315.788 94.2858 315.788C94.6058 315.788 94.8538 315.724 95.0298 315.596C95.2138 315.468 95.3058 315.304 95.3058 315.104C95.3058 314.888 95.1938 314.728 94.9698 314.624C94.7538 314.512 94.4058 314.392 93.9258 314.264C93.4298 314.144 93.0218 314.02 92.7018 313.892C92.3898 313.764 92.1178 313.568 91.8858 313.304C91.6618 313.04 91.5498 312.684 91.5498 312.236C91.5498 311.868 91.6538 311.532 91.8618 311.228C92.0778 310.924 92.3818 310.684 92.7738 310.508C93.1738 310.332 93.6418 310.244 94.1778 310.244C94.9698 310.244 95.6018 310.444 96.0738 310.844C96.5458 311.236 96.8058 311.768 96.8538 312.44H95.2458C95.2218 312.176 95.1098 311.968 94.9098 311.816C94.7178 311.656 94.4578 311.576 94.1298 311.576C93.8258 311.576 93.5898 311.632 93.4218 311.744C93.2618 311.856 93.1818 312.012 93.1818 312.212C93.1818 312.436 93.2938 312.608 93.5178 312.728C93.7418 312.84 94.0898 312.956 94.5618 313.076C95.0418 313.196 95.4378 313.32 95.7498 313.448C96.0618 313.576 96.3298 313.776 96.5538 314.048C96.7858 314.312 96.9058 314.664 96.9138 315.104C96.9138 315.488 96.8058 315.832 96.5898 316.136C96.3818 316.44 96.0778 316.68 95.6778 316.856C95.2858 317.024 94.8258 317.108 94.2978 317.108Z" fill="#1F1F1F"/>
<path d="M97.8608 313.676C97.8608 312.988 98.0008 312.388 98.2808 311.876C98.5608 311.356 98.9488 310.956 99.4448 310.676C99.9408 310.388 100.509 310.244 101.149 310.244C101.973 310.244 102.653 310.452 103.189 310.868C103.733 311.276 104.097 311.852 104.281 312.596H102.469C102.373 312.308 102.209 312.084 101.977 311.924C101.753 311.756 101.473 311.672 101.137 311.672C100.657 311.672 100.277 311.848 99.9968 312.2C99.7168 312.544 99.5768 313.036 99.5768 313.676C99.5768 314.308 99.7168 314.8 99.9968 315.152C100.277 315.496 100.657 315.668 101.137 315.668C101.817 315.668 102.261 315.364 102.469 314.756H104.281C104.097 315.476 103.733 316.048 103.189 316.472C102.645 316.896 101.965 317.108 101.149 317.108C100.509 317.108 99.9408 316.968 99.4448 316.688C98.9488 316.4 98.5608 316 98.2808 315.488C98.0008 314.968 97.8608 314.364 97.8608 313.676Z" fill="#1F1F1F"/>
<path d="M111.788 310.352V317H110.096V316.16C109.88 316.448 109.596 316.676 109.244 316.844C108.9 317.004 108.524 317.084 108.116 317.084C107.596 317.084 107.136 316.976 106.736 316.76C106.336 316.536 106.02 316.212 105.788 315.788C105.564 315.356 105.452 314.844 105.452 314.252V310.352H107.132V314.012C107.132 314.54 107.264 314.948 107.528 315.236C107.792 315.516 108.152 315.656 108.608 315.656C109.072 315.656 109.436 315.516 109.7 315.236C109.964 314.948 110.096 314.54 110.096 314.012V310.352H111.788Z" fill="#1F1F1F"/>
<path d="M115.125 308.12V317H113.445V308.12H115.125Z" fill="#1F1F1F"/>
<path d="M117.637 309.56C117.341 309.56 117.093 309.468 116.893 309.284C116.701 309.092 116.605 308.856 116.605 308.576C116.605 308.296 116.701 308.064 116.893 307.88C117.093 307.688 117.341 307.592 117.637 307.592C117.933 307.592 118.177 307.688 118.369 307.88C118.569 308.064 118.669 308.296 118.669 308.576C118.669 308.856 118.569 309.092 118.369 309.284C118.177 309.468 117.933 309.56 117.637 309.56ZM118.465 310.352V317H116.785V310.352H118.465Z" fill="#1F1F1F"/>
<path d="M123.809 310.256C124.601 310.256 125.241 310.508 125.729 311.012C126.217 311.508 126.461 312.204 126.461 313.1V317H124.781V313.328C124.781 312.8 124.649 312.396 124.385 312.116C124.121 311.828 123.761 311.684 123.305 311.684C122.841 311.684 122.473 311.828 122.201 312.116C121.937 312.396 121.805 312.8 121.805 313.328V317H120.125V310.352H121.805V311.18C122.029 310.892 122.313 310.668 122.657 310.508C123.009 310.34 123.393 310.256 123.809 310.256Z" fill="#1F1F1F"/>
<path d="M131.01 317.108C130.37 317.108 129.794 316.968 129.282 316.688C128.77 316.4 128.366 315.996 128.07 315.476C127.782 314.956 127.638 314.356 127.638 313.676C127.638 312.996 127.786 312.396 128.082 311.876C128.386 311.356 128.798 310.956 129.318 310.676C129.838 310.388 130.418 310.244 131.058 310.244C131.698 310.244 132.278 310.388 132.798 310.676C133.318 310.956 133.726 311.356 134.022 311.876C134.326 312.396 134.478 312.996 134.478 313.676C134.478 314.356 134.322 314.956 134.01 315.476C133.706 315.996 133.29 316.4 132.762 316.688C132.242 316.968 131.658 317.108 131.01 317.108ZM131.01 315.644C131.314 315.644 131.598 315.572 131.862 315.428C132.134 315.276 132.35 315.052 132.51 314.756C132.67 314.46 132.75 314.1 132.75 313.676C132.75 313.044 132.582 312.56 132.246 312.224C131.918 311.88 131.514 311.708 131.034 311.708C130.554 311.708 130.15 311.88 129.822 312.224C129.502 312.56 129.342 313.044 129.342 313.676C129.342 314.308 129.498 314.796 129.81 315.14C130.13 315.476 130.53 315.644 131.01 315.644Z" fill="#1F1F1F"/>
</svg>