<svg width="872" height="790" viewBox="0 0 872 790" fill="none" xmlns="http://www.w3.org/2000/svg">
<path fill-rule="evenodd" clip-rule="evenodd" d="M342.778 -10.9904C428.174 -38.9318 511.98 3.86489 601.788 1.10732C737.276 -3.0529 885.187 -114.814 991.654 -30.9143C1101.31 55.4996 1083.42 227.151 1064.1 365.423C1044.3 507.081 1003.23 657.476 884.341 736.999C768.057 814.777 615.92 792.548 481.042 755.41C362.416 722.747 273.334 640.617 193.688 546.832C104.45 441.752 -29.5899 329.231 6.00658 196.047C41.3779 63.7043 212.583 31.6096 342.778 -10.9904Z" fill="url(#paint0_linear_1001_75)"/>
<path d="M736 472C736.1 540.219 711.97 606.257 667.91 658.34C666.31 660.24 664.68 662.11 663.02 663.97C643.485 685.94 620.729 704.818 595.53 719.96C589.75 723.43 583.843 726.7 577.81 729.77C577.2 730.08 576.58 730.39 575.97 730.69C575.24 731.06 574.5 731.42 573.76 731.78C558.493 739.253 542.59 745.35 526.24 750C524.54 750.48 522.837 750.947 521.13 751.4C499.623 757.091 477.529 760.275 455.29 760.89C454.13 760.92 452.99 760.94 451.89 760.96C451.5 760.97 451.12 760.98 450.74 760.98C449.49 760.99 448.25 761 447 761C423.564 761.017 400.213 758.187 377.46 752.57C375.18 752.01 372.91 751.42 370.65 750.8C358.746 747.55 347.064 743.532 335.68 738.77C329.68 736.27 323.787 733.573 318 730.68C316.69 730.02 315.38 729.36 314.09 728.68C313.54 728.41 313 728.12 312.46 727.84C281.618 711.562 253.96 689.862 230.81 663.78C229.21 661.99 227.64 660.17 226.09 658.34C200.583 628.097 181.556 592.94 170.188 555.045C158.82 517.15 155.353 477.325 160.002 438.036C164.651 398.747 177.317 360.831 197.215 326.636C217.113 292.441 243.819 262.694 275.68 239.24C277.32 238.03 278.97 236.83 280.64 235.66C280.97 235.43 281.3 235.2 281.63 234.97C310.973 214.416 343.908 199.543 378.73 191.12C380.71 190.63 382.69 190.17 384.69 189.74C422.407 181.49 461.387 180.806 499.37 187.73C501.36 188.1 503.35 188.48 505.33 188.89C539.841 195.968 572.755 209.334 602.43 228.32C603.09 228.74 603.75 229.16 604.41 229.6C605.74 230.46 607.07 231.34 608.38 232.23C647.691 258.658 679.894 294.354 702.151 336.168C724.407 377.983 736.032 424.631 736 472Z" fill="#F2F2F2"/>
<path d="M374 621.51L281.63 629.71L280.64 629.8V235.66C280.97 235.43 281.3 235.2 281.63 234.97C300.881 221.505 321.705 210.443 343.64 202.03L373.83 619.21L374 621.51Z" fill="#CCCCCC"/>
<path d="M602.43 228.32C603.09 228.74 603.75 229.16 604.41 229.6V629.8L602.43 629.62L511.06 621.51L511.23 619.21L541.65 198.86C562.997 206.259 583.397 216.147 602.43 228.32Z" fill="#CCCCCC"/>
<path d="M602.43 228.32V635.26C602.43 643.07 597.05 649.42 590.43 649.42H293.63C288.15 649.42 283.5 645.06 282.09 639.11C281.782 637.85 281.628 636.557 281.63 635.26V234.97C281.3 235.2 280.97 235.43 280.64 235.66C278.97 236.83 277.32 238.03 275.68 239.24V635.26C275.591 641.192 277.807 646.928 281.86 651.26C283.985 653.487 286.674 655.097 289.64 655.92C290.94 656.274 292.282 656.452 293.63 656.45H590.43C591.781 656.451 593.126 656.273 594.43 655.92C602.41 653.77 608.38 645.33 608.38 635.26V232.23C607.07 231.34 605.74 230.46 604.41 229.6C603.75 229.16 603.09 228.74 602.43 228.32Z" fill="#CCCCCC"/>
<path d="M605.407 267.134H278.655V273.093H605.407V267.134Z" fill="#CCCCCC"/>
<path d="M378.73 191.12C380.71 190.63 382.69 190.17 384.69 189.74V351.55H378.73V191.12Z" fill="#CCCCCC"/>
<path d="M499.37 187.73C501.36 188.1 503.35 188.48 505.33 188.89V351.55H499.37V187.73Z" fill="#CCCCCC"/>
<path d="M642.65 619.21H251.34C244.227 619.21 237.405 622.036 232.375 627.065C227.346 632.095 224.52 638.917 224.52 646.03C224.52 653.143 227.346 659.965 232.375 664.995C237.405 670.024 244.227 672.85 251.34 672.85H642.65C646.459 672.851 650.224 672.039 653.694 670.467C657.163 668.896 660.258 666.603 662.77 663.74C663.907 662.446 664.918 661.046 665.79 659.56C666.465 658.42 667.05 657.23 667.54 656C669.174 651.931 669.784 647.524 669.318 643.164C668.852 638.804 667.324 634.626 664.867 630.994C662.41 627.363 659.1 624.389 655.226 622.335C651.353 620.28 647.035 619.207 642.65 619.21Z" fill="#CCCCCC"/>
<path d="M605.407 337.649H280.642V357.512H605.407V337.649Z" fill="#CCCCCC"/>
<path d="M440.045 331.69H446.004C447.439 331.69 448.859 331.972 450.185 332.521C451.51 333.07 452.715 333.875 453.729 334.89C454.743 335.904 455.548 337.108 456.097 338.434C456.646 339.759 456.929 341.18 456.929 342.615H429.12C429.12 339.717 430.271 336.938 432.32 334.89C434.369 332.841 437.148 331.69 440.045 331.69Z" fill="#CCCCCC"/>
<path d="M667.91 658.34C659.223 668.634 649.826 678.307 639.79 687.29H254.21C244.174 678.307 234.777 668.634 226.09 658.34H667.91Z" fill="#1F1F1F"/>
<path d="M479.28 558.07H414.36C414.01 558.066 413.662 558.12 413.33 558.23C412.625 558.448 412.009 558.886 411.572 559.48C411.134 560.074 410.899 560.792 410.9 561.53V664.09H482.75V561.53C482.75 561.075 482.659 560.624 482.485 560.204C482.31 559.784 482.054 559.402 481.732 559.081C481.41 558.759 481.027 558.505 480.607 558.331C480.186 558.158 479.735 558.069 479.28 558.07ZM454.71 608.67C454.712 610.333 454.164 611.951 453.15 613.27C452.183 614.55 450.838 615.494 449.305 615.969C447.773 616.445 446.13 616.427 444.608 615.919C443.086 615.411 441.762 614.438 440.822 613.138C439.882 611.837 439.375 610.274 439.37 608.67V596.77C439.389 594.748 440.205 592.815 441.642 591.392C443.078 589.969 445.018 589.171 447.04 589.171C449.062 589.171 451.002 589.969 452.439 591.392C453.875 592.815 454.691 594.748 454.71 596.77V608.67Z" fill="#2F2E41"/>
<path d="M410.68 660.81V670.7C410.68 671.213 410.883 671.705 411.245 672.068C411.606 672.432 412.097 672.637 412.61 672.64H481.04C481.552 672.636 482.042 672.43 482.404 672.066C482.765 671.703 482.968 671.212 482.97 670.7V660.81H410.68Z" fill="#1F1F1F"/>
<path d="M586.78 398.02H309.28C306.896 398.023 304.61 398.971 302.923 400.656C301.236 402.341 300.286 404.626 300.28 407.01V594.27C300.282 596.656 301.231 598.944 302.918 600.632C304.606 602.319 306.894 603.268 309.28 603.27H586.78C589.166 603.268 591.454 602.319 593.142 600.632C594.829 598.944 595.778 596.656 595.78 594.27V407.01C595.774 404.626 594.824 402.341 593.137 400.656C591.45 398.971 589.164 398.023 586.78 398.02Z" fill="#1F1F1F"/>
<path d="M584.46 404.52H311.59C310.313 404.523 309.09 405.032 308.188 405.935C307.287 406.839 306.78 408.063 306.78 409.34V591.96C306.782 593.235 307.29 594.457 308.191 595.359C309.093 596.26 310.315 596.768 311.59 596.77H584.46C585.735 596.768 586.957 596.26 587.859 595.359C588.76 594.457 589.268 593.235 589.27 591.96V409.34C589.27 408.063 588.763 406.839 587.862 405.935C586.96 405.032 585.737 404.523 584.46 404.52Z" fill="#1F1F1F"/>
<path d="M534.24 672.48L531.72 660.51C531.616 660.022 531.391 659.568 531.066 659.189C530.741 658.81 530.326 658.518 529.86 658.34C529.522 658.207 529.163 658.14 528.8 658.14H371.49C371.127 658.14 370.768 658.207 370.43 658.34C369.964 658.518 369.549 658.81 369.224 659.189C368.899 659.568 368.674 660.022 368.57 660.51L366.05 672.48C365.959 672.914 365.966 673.364 366.07 673.795C366.175 674.227 366.374 674.63 366.654 674.974C366.933 675.319 367.286 675.597 367.687 675.789C368.088 675.98 368.526 676.079 368.97 676.08H531.31C531.755 676.082 532.196 675.984 532.597 675.791C532.999 675.599 533.352 675.318 533.63 674.97C533.91 674.626 534.11 674.224 534.216 673.794C534.321 673.363 534.33 672.914 534.24 672.48Z" fill="#2F2E41"/>
<path d="M377.155 660.296H373.131C372.862 660.296 372.643 660.514 372.643 660.784V662.808C372.643 663.077 372.862 663.296 373.131 663.296H377.155C377.424 663.296 377.643 663.077 377.643 662.808V660.784C377.643 660.514 377.424 660.296 377.155 660.296Z" fill="#1F1F1F"/>
<path d="M387.155 660.296H383.131C382.862 660.296 382.643 660.514 382.643 660.784V662.808C382.643 663.077 382.862 663.296 383.131 663.296H387.155C387.424 663.296 387.643 663.077 387.643 662.808V660.784C387.643 660.514 387.424 660.296 387.155 660.296Z" fill="#1F1F1F"/>
<path d="M397.155 660.296H393.131C392.862 660.296 392.643 660.514 392.643 660.784V662.808C392.643 663.077 392.862 663.296 393.131 663.296H397.155C397.424 663.296 397.643 663.077 397.643 662.808V660.784C397.643 660.514 397.424 660.296 397.155 660.296Z" fill="#1F1F1F"/>
<path d="M407.155 660.296H403.131C402.862 660.296 402.643 660.514 402.643 660.784V662.808C402.643 663.077 402.862 663.296 403.131 663.296H407.155C407.424 663.296 407.643 663.077 407.643 662.808V660.784C407.643 660.514 407.424 660.296 407.155 660.296Z" fill="#1F1F1F"/>
<path d="M417.155 660.296H413.131C412.862 660.296 412.643 660.514 412.643 660.784V662.808C412.643 663.077 412.862 663.296 413.131 663.296H417.155C417.424 663.296 417.643 663.077 417.643 662.808V660.784C417.643 660.514 417.424 660.296 417.155 660.296Z" fill="#1F1F1F"/>
<path d="M427.155 660.296H423.131C422.862 660.296 422.643 660.514 422.643 660.784V662.808C422.643 663.077 422.862 663.296 423.131 663.296H427.155C427.424 663.296 427.643 663.077 427.643 662.808V660.784C427.643 660.514 427.424 660.296 427.155 660.296Z" fill="#1F1F1F"/>
<path d="M437.155 660.296H433.131C432.862 660.296 432.643 660.514 432.643 660.784V662.808C432.643 663.077 432.862 663.296 433.131 663.296H437.155C437.424 663.296 437.643 663.077 437.643 662.808V660.784C437.643 660.514 437.424 660.296 437.155 660.296Z" fill="#1F1F1F"/>
<path d="M447.155 660.296H443.131C442.862 660.296 442.643 660.514 442.643 660.784V662.808C442.643 663.077 442.862 663.296 443.131 663.296H447.155C447.424 663.296 447.643 663.077 447.643 662.808V660.784C447.643 660.514 447.424 660.296 447.155 660.296Z" fill="#1F1F1F"/>
<path d="M457.155 660.296H453.131C452.862 660.296 452.643 660.514 452.643 660.784V662.808C452.643 663.077 452.862 663.296 453.131 663.296H457.155C457.424 663.296 457.643 663.077 457.643 662.808V660.784C457.643 660.514 457.424 660.296 457.155 660.296Z" fill="#1F1F1F"/>
<path d="M467.155 660.296H463.131C462.862 660.296 462.643 660.514 462.643 660.784V662.808C462.643 663.077 462.862 663.296 463.131 663.296H467.155C467.424 663.296 467.643 663.077 467.643 662.808V660.784C467.643 660.514 467.424 660.296 467.155 660.296Z" fill="#1F1F1F"/>
<path d="M477.155 660.296H473.131C472.862 660.296 472.643 660.514 472.643 660.784V662.808C472.643 663.077 472.862 663.296 473.131 663.296H477.155C477.424 663.296 477.643 663.077 477.643 662.808V660.784C477.643 660.514 477.424 660.296 477.155 660.296Z" fill="#1F1F1F"/>
<path d="M487.155 660.296H483.131C482.862 660.296 482.643 660.514 482.643 660.784V662.808C482.643 663.077 482.862 663.296 483.131 663.296H487.155C487.424 663.296 487.643 663.077 487.643 662.808V660.784C487.643 660.514 487.424 660.296 487.155 660.296Z" fill="#1F1F1F"/>
<path d="M497.155 660.296H493.131C492.862 660.296 492.643 660.514 492.643 660.784V662.808C492.643 663.077 492.862 663.296 493.131 663.296H497.155C497.424 663.296 497.643 663.077 497.643 662.808V660.784C497.643 660.514 497.424 660.296 497.155 660.296Z" fill="#1F1F1F"/>
<path d="M507.155 660.296H503.131C502.862 660.296 502.643 660.514 502.643 660.784V662.808C502.643 663.077 502.862 663.296 503.131 663.296H507.155C507.424 663.296 507.643 663.077 507.643 662.808V660.784C507.643 660.514 507.424 660.296 507.155 660.296Z" fill="#1F1F1F"/>
<path d="M517.155 660.296H513.131C512.862 660.296 512.643 660.514 512.643 660.784V662.808C512.643 663.077 512.862 663.296 513.131 663.296H517.155C517.424 663.296 517.643 663.077 517.643 662.808V660.784C517.643 660.514 517.424 660.296 517.155 660.296Z" fill="#1F1F1F"/>
<path d="M527.155 660.296H523.131C522.862 660.296 522.643 660.514 522.643 660.784V662.808C522.643 663.077 522.862 663.296 523.131 663.296H527.155C527.424 663.296 527.643 663.077 527.643 662.808V660.784C527.643 660.514 527.424 660.296 527.155 660.296Z" fill="#1F1F1F"/>
<path d="M377.037 665.296H373.013C372.743 665.296 372.525 665.514 372.525 665.784V667.808C372.525 668.077 372.743 668.296 373.013 668.296H377.037C377.306 668.296 377.525 668.077 377.525 667.808V665.784C377.525 665.514 377.306 665.296 377.037 665.296Z" fill="#1F1F1F"/>
<path d="M387.037 665.296H383.013C382.743 665.296 382.525 665.514 382.525 665.784V667.808C382.525 668.077 382.743 668.296 383.013 668.296H387.037C387.306 668.296 387.525 668.077 387.525 667.808V665.784C387.525 665.514 387.306 665.296 387.037 665.296Z" fill="#1F1F1F"/>
<path d="M397.037 665.296H393.013C392.743 665.296 392.525 665.514 392.525 665.784V667.808C392.525 668.077 392.743 668.296 393.013 668.296H397.037C397.306 668.296 397.525 668.077 397.525 667.808V665.784C397.525 665.514 397.306 665.296 397.037 665.296Z" fill="#1F1F1F"/>
<path d="M407.037 665.296H403.013C402.743 665.296 402.525 665.514 402.525 665.784V667.808C402.525 668.077 402.743 668.296 403.013 668.296H407.037C407.306 668.296 407.525 668.077 407.525 667.808V665.784C407.525 665.514 407.306 665.296 407.037 665.296Z" fill="#1F1F1F"/>
<path d="M417.037 665.296H413.013C412.743 665.296 412.525 665.514 412.525 665.784V667.808C412.525 668.077 412.743 668.296 413.013 668.296H417.037C417.306 668.296 417.525 668.077 417.525 667.808V665.784C417.525 665.514 417.306 665.296 417.037 665.296Z" fill="#1F1F1F"/>
<path d="M427.037 665.296H423.013C422.743 665.296 422.525 665.514 422.525 665.784V667.808C422.525 668.077 422.743 668.296 423.013 668.296H427.037C427.306 668.296 427.525 668.077 427.525 667.808V665.784C427.525 665.514 427.306 665.296 427.037 665.296Z" fill="#1F1F1F"/>
<path d="M437.037 665.296H433.013C432.743 665.296 432.525 665.514 432.525 665.784V667.808C432.525 668.077 432.743 668.296 433.013 668.296H437.037C437.306 668.296 437.525 668.077 437.525 667.808V665.784C437.525 665.514 437.306 665.296 437.037 665.296Z" fill="#1F1F1F"/>
<path d="M447.037 665.296H443.013C442.743 665.296 442.525 665.514 442.525 665.784V667.808C442.525 668.077 442.743 668.296 443.013 668.296H447.037C447.306 668.296 447.525 668.077 447.525 667.808V665.784C447.525 665.514 447.306 665.296 447.037 665.296Z" fill="#1F1F1F"/>
<path d="M457.037 665.296H453.013C452.743 665.296 452.525 665.514 452.525 665.784V667.808C452.525 668.077 452.743 668.296 453.013 668.296H457.037C457.306 668.296 457.525 668.077 457.525 667.808V665.784C457.525 665.514 457.306 665.296 457.037 665.296Z" fill="#1F1F1F"/>
<path d="M467.037 665.296H463.013C462.743 665.296 462.525 665.514 462.525 665.784V667.808C462.525 668.077 462.743 668.296 463.013 668.296H467.037C467.306 668.296 467.525 668.077 467.525 667.808V665.784C467.525 665.514 467.306 665.296 467.037 665.296Z" fill="#1F1F1F"/>
<path d="M477.037 665.296H473.013C472.743 665.296 472.525 665.514 472.525 665.784V667.808C472.525 668.077 472.743 668.296 473.013 668.296H477.037C477.306 668.296 477.525 668.077 477.525 667.808V665.784C477.525 665.514 477.306 665.296 477.037 665.296Z" fill="#1F1F1F"/>
<path d="M487.037 665.296H483.013C482.743 665.296 482.525 665.514 482.525 665.784V667.808C482.525 668.077 482.743 668.296 483.013 668.296H487.037C487.306 668.296 487.525 668.077 487.525 667.808V665.784C487.525 665.514 487.306 665.296 487.037 665.296Z" fill="#1F1F1F"/>
<path d="M497.037 665.296H493.013C492.743 665.296 492.525 665.514 492.525 665.784V667.808C492.525 668.077 492.743 668.296 493.013 668.296H497.037C497.306 668.296 497.525 668.077 497.525 667.808V665.784C497.525 665.514 497.306 665.296 497.037 665.296Z" fill="#1F1F1F"/>
<path d="M507.037 665.296H503.013C502.743 665.296 502.525 665.514 502.525 665.784V667.808C502.525 668.077 502.743 668.296 503.013 668.296H507.037C507.306 668.296 507.525 668.077 507.525 667.808V665.784C507.525 665.514 507.306 665.296 507.037 665.296Z" fill="#1F1F1F"/>
<path d="M517.037 665.296H513.013C512.743 665.296 512.525 665.514 512.525 665.784V667.808C512.525 668.077 512.743 668.296 513.013 668.296H517.037C517.306 668.296 517.525 668.077 517.525 667.808V665.784C517.525 665.514 517.306 665.296 517.037 665.296Z" fill="#1F1F1F"/>
<path d="M527.037 665.296H523.013C522.743 665.296 522.525 665.514 522.525 665.784V667.808C522.525 668.077 522.743 668.296 523.013 668.296H527.037C527.306 668.296 527.525 668.077 527.525 667.808V665.784C527.525 665.514 527.306 665.296 527.037 665.296Z" fill="#1F1F1F"/>
<path d="M460.037 671.296H421.013C420.743 671.296 420.525 671.514 420.525 671.784V673.808C420.525 674.077 420.743 674.296 421.013 674.296H460.037C460.306 674.296 460.525 674.077 460.525 673.808V671.784C460.525 671.514 460.306 671.296 460.037 671.296Z" fill="#1F1F1F"/>
<path d="M570.748 429.677H315.425C315.159 429.671 314.907 429.561 314.721 429.372C314.535 429.182 314.431 428.927 314.431 428.661C314.431 428.396 314.535 428.141 314.721 427.951C314.907 427.761 315.159 427.652 315.425 427.646H570.748C571.014 427.652 571.266 427.761 571.452 427.951C571.637 428.141 571.741 428.396 571.741 428.661C571.741 428.927 571.637 429.182 571.452 429.372C571.266 429.561 571.014 429.671 570.748 429.677Z" fill="#1F1F1F"/>
<path d="M332.805 422.462C336.091 422.462 338.755 419.738 338.755 416.379C338.755 413.019 336.091 410.296 332.805 410.296C329.519 410.296 326.855 413.019 326.855 416.379C326.855 419.738 329.519 422.462 332.805 422.462Z" fill="#1F1F1F"/>
<path d="M353.361 422.462C356.647 422.462 359.311 419.738 359.311 416.379C359.311 413.019 356.647 410.296 353.361 410.296C350.075 410.296 347.411 413.019 347.411 416.379C347.411 419.738 350.075 422.462 353.361 422.462Z" fill="#1F1F1F"/>
<path d="M373.917 422.462C377.203 422.462 379.867 419.738 379.867 416.379C379.867 413.019 377.203 410.296 373.917 410.296C370.631 410.296 367.967 413.019 367.967 416.379C367.967 419.738 370.631 422.462 373.917 422.462Z" fill="#1F1F1F"/>
<path d="M558.37 411.8H543.77C543.481 411.807 543.207 411.926 543.005 412.133C542.803 412.339 542.69 412.616 542.69 412.905C542.69 413.194 542.803 413.471 543.005 413.677C543.207 413.884 543.481 414.003 543.77 414.01H558.37C558.66 414.006 558.937 413.888 559.141 413.681C559.345 413.474 559.46 413.195 559.46 412.905C559.46 412.615 559.345 412.336 559.141 412.129C558.937 411.922 558.66 411.804 558.37 411.8Z" fill="#1F1F1F"/>
<path d="M558.37 415.95H543.77C543.481 415.956 543.206 416.076 543.004 416.282C542.802 416.489 542.689 416.766 542.689 417.055C542.689 417.344 542.802 417.621 543.004 417.828C543.206 418.034 543.481 418.154 543.77 418.16H558.37C558.661 418.156 558.938 418.039 559.143 417.832C559.347 417.625 559.462 417.346 559.462 417.055C559.462 416.764 559.347 416.485 559.143 416.278C558.938 416.071 558.661 415.953 558.37 415.95Z" fill="#1F1F1F"/>
<path d="M558.37 420.1H543.77C543.481 420.107 543.207 420.226 543.005 420.433C542.803 420.639 542.69 420.916 542.69 421.205C542.69 421.494 542.803 421.771 543.005 421.977C543.207 422.184 543.481 422.303 543.77 422.31H558.37C558.66 422.306 558.937 422.188 559.141 421.981C559.345 421.774 559.46 421.495 559.46 421.205C559.46 420.915 559.345 420.636 559.141 420.429C558.937 420.222 558.66 420.104 558.37 420.1Z" fill="#1F1F1F"/>
<path d="M337.44 453.273H332.194C330.604 453.273 329.314 454.563 329.314 456.153C329.314 457.744 330.604 459.033 332.194 459.033H337.44C339.031 459.033 340.32 457.744 340.32 456.153C340.32 454.563 339.031 453.273 337.44 453.273Z" fill="#E6E6E6"/>
<path d="M397.44 453.273H392.194C390.604 453.273 389.314 454.563 389.314 456.153C389.314 457.744 390.604 459.033 392.194 459.033H397.44C399.031 459.033 400.32 457.744 400.32 456.153C400.32 454.563 399.031 453.273 397.44 453.273Z" fill="#E6E6E6"/>
<path d="M414.44 453.273H409.194C407.604 453.273 406.314 454.563 406.314 456.153C406.314 457.744 407.604 459.033 409.194 459.033H414.44C416.031 459.033 417.32 457.744 417.32 456.153C417.32 454.563 416.031 453.273 414.44 453.273Z" fill="#E6E6E6"/>
<path d="M381.12 452.793H348.514C346.924 452.793 345.634 454.082 345.634 455.673C345.634 457.264 346.924 458.553 348.514 458.553H381.12C382.711 458.553 384 457.264 384 455.673C384 454.082 382.711 452.793 381.12 452.793Z" fill="#E6E6E6"/>
<path d="M461.12 452.793H428.514C426.924 452.793 425.634 454.082 425.634 455.673C425.634 457.264 426.924 458.553 428.514 458.553H461.12C462.711 458.553 464 457.264 464 455.673C464 454.082 462.711 452.793 461.12 452.793Z" fill="#E6E6E6"/>
<path d="M353.44 466.273H348.194C346.604 466.273 345.314 467.563 345.314 469.153C345.314 470.744 346.604 472.033 348.194 472.033H353.44C355.031 472.033 356.32 470.744 356.32 469.153C356.32 467.563 355.031 466.273 353.44 466.273Z" fill="#E6E6E6"/>
<path d="M413.44 466.273H408.194C406.604 466.273 405.314 467.563 405.314 469.153C405.314 470.744 406.604 472.033 408.194 472.033H413.44C415.031 472.033 416.32 470.744 416.32 469.153C416.32 467.563 415.031 466.273 413.44 466.273Z" fill="#E6E6E6"/>
<path d="M430.44 466.273H425.194C423.604 466.273 422.314 467.563 422.314 469.153C422.314 470.744 423.604 472.033 425.194 472.033H430.44C432.031 472.033 433.32 470.744 433.32 469.153C433.32 467.563 432.031 466.273 430.44 466.273Z" fill="#E6E6E6"/>
<path d="M397.12 465.793H364.514C362.924 465.793 361.634 467.082 361.634 468.673C361.634 470.264 362.924 471.553 364.514 471.553H397.12C398.711 471.553 400 470.264 400 468.673C400 467.082 398.711 465.793 397.12 465.793Z" fill="#E6E6E6"/>
<path d="M477.12 465.793H444.514C442.924 465.793 441.634 467.082 441.634 468.673C441.634 470.264 442.924 471.553 444.514 471.553H477.12C478.711 471.553 480 470.264 480 468.673C480 467.082 478.711 465.793 477.12 465.793Z" fill="#E6E6E6"/>
<path d="M369.44 479.273H364.194C362.604 479.273 361.314 480.563 361.314 482.153C361.314 483.744 362.604 485.033 364.194 485.033H369.44C371.031 485.033 372.32 483.744 372.32 482.153C372.32 480.563 371.031 479.273 369.44 479.273Z" fill="#E6E6E6"/>
<path d="M429.44 479.273H424.194C422.604 479.273 421.314 480.563 421.314 482.153C421.314 483.744 422.604 485.033 424.194 485.033H429.44C431.031 485.033 432.32 483.744 432.32 482.153C432.32 480.563 431.031 479.273 429.44 479.273Z" fill="#E6E6E6"/>
<path d="M446.44 479.273H441.194C439.604 479.273 438.314 480.563 438.314 482.153C438.314 483.744 439.604 485.033 441.194 485.033H446.44C448.031 485.033 449.32 483.744 449.32 482.153C449.32 480.563 448.031 479.273 446.44 479.273Z" fill="#E6E6E6"/>
<path d="M413.12 478.793H380.514C378.924 478.793 377.634 480.082 377.634 481.673C377.634 483.264 378.924 484.553 380.514 484.553H413.12C414.711 484.553 416 483.264 416 481.673C416 480.082 414.711 478.793 413.12 478.793Z" fill="#E6E6E6"/>
<path d="M493.12 478.793H460.514C458.924 478.793 457.634 480.082 457.634 481.673C457.634 483.264 458.924 484.553 460.514 484.553H493.12C494.711 484.553 496 483.264 496 481.673C496 480.082 494.711 478.793 493.12 478.793Z" fill="#E6E6E6"/>
<path d="M385.44 492.273H380.194C378.604 492.273 377.314 493.563 377.314 495.153C377.314 496.744 378.604 498.033 380.194 498.033H385.44C387.031 498.033 388.32 496.744 388.32 495.153C388.32 493.563 387.031 492.273 385.44 492.273Z" fill="#E6E6E6"/>
<path d="M445.44 492.273H440.194C438.604 492.273 437.314 493.563 437.314 495.153C437.314 496.744 438.604 498.033 440.194 498.033H445.44C447.031 498.033 448.32 496.744 448.32 495.153C448.32 493.563 447.031 492.273 445.44 492.273Z" fill="#E6E6E6"/>
<path d="M462.44 492.273H457.194C455.604 492.273 454.314 493.563 454.314 495.153C454.314 496.744 455.604 498.033 457.194 498.033H462.44C464.031 498.033 465.32 496.744 465.32 495.153C465.32 493.563 464.031 492.273 462.44 492.273Z" fill="#E6E6E6"/>
<path d="M429.12 491.793H396.514C394.924 491.793 393.634 493.082 393.634 494.673C393.634 496.264 394.924 497.553 396.514 497.553H429.12C430.711 497.553 432 496.264 432 494.673C432 493.082 430.711 491.793 429.12 491.793Z" fill="#E6E6E6"/>
<path d="M397.44 543.967H392.194C390.604 543.967 389.314 545.256 389.314 546.847C389.314 548.437 390.604 549.727 392.194 549.727H397.44C399.031 549.727 400.32 548.437 400.32 546.847C400.32 545.256 399.031 543.967 397.44 543.967Z" fill="#E6E6E6"/>
<path d="M414.44 543.967H409.194C407.604 543.967 406.314 545.256 406.314 546.847C406.314 548.437 407.604 549.727 409.194 549.727H414.44C416.031 549.727 417.32 548.437 417.32 546.847C417.32 545.256 416.031 543.967 414.44 543.967Z" fill="#E6E6E6"/>
<path d="M461.12 544.447H428.514C426.924 544.447 425.634 545.736 425.634 547.327C425.634 548.917 426.924 550.207 428.514 550.207H461.12C462.711 550.207 464 548.917 464 547.327C464 545.736 462.711 544.447 461.12 544.447Z" fill="#E6E6E6"/>
<path d="M337.44 543.967H332.194C330.604 543.967 329.314 545.256 329.314 546.847C329.314 548.437 330.604 549.727 332.194 549.727H337.44C339.031 549.727 340.32 548.437 340.32 546.847C340.32 545.256 339.031 543.967 337.44 543.967Z" fill="#E6E6E6"/>
<path d="M381.12 544.447H348.514C346.924 544.447 345.634 545.736 345.634 547.327C345.634 548.917 346.924 550.207 348.514 550.207H381.12C382.711 550.207 384 548.917 384 547.327C384 545.736 382.711 544.447 381.12 544.447Z" fill="#E6E6E6"/>
<path d="M353.44 530.967H348.194C346.604 530.967 345.314 532.256 345.314 533.847C345.314 535.437 346.604 536.727 348.194 536.727H353.44C355.031 536.727 356.32 535.437 356.32 533.847C356.32 532.256 355.031 530.967 353.44 530.967Z" fill="#E6E6E6"/>
<path d="M413.44 530.967H408.194C406.604 530.967 405.314 532.256 405.314 533.847C405.314 535.437 406.604 536.727 408.194 536.727H413.44C415.031 536.727 416.32 535.437 416.32 533.847C416.32 532.256 415.031 530.967 413.44 530.967Z" fill="#E6E6E6"/>
<path d="M430.44 530.967H425.194C423.604 530.967 422.314 532.256 422.314 533.847C422.314 535.437 423.604 536.727 425.194 536.727H430.44C432.031 536.727 433.32 535.437 433.32 533.847C433.32 532.256 432.031 530.967 430.44 530.967Z" fill="#E6E6E6"/>
<path d="M397.12 531.447H364.514C362.924 531.447 361.634 532.736 361.634 534.327C361.634 535.917 362.924 537.207 364.514 537.207H397.12C398.711 537.207 400 535.917 400 534.327C400 532.736 398.711 531.447 397.12 531.447Z" fill="#E6E6E6"/>
<path d="M369.44 517.967H364.194C362.604 517.967 361.314 519.256 361.314 520.847C361.314 522.437 362.604 523.727 364.194 523.727H369.44C371.031 523.727 372.32 522.437 372.32 520.847C372.32 519.256 371.031 517.967 369.44 517.967Z" fill="#E6E6E6"/>
<path d="M429.44 517.967H424.194C422.604 517.967 421.314 519.256 421.314 520.847C421.314 522.437 422.604 523.727 424.194 523.727H429.44C431.031 523.727 432.32 522.437 432.32 520.847C432.32 519.256 431.031 517.967 429.44 517.967Z" fill="#E6E6E6"/>
<path d="M446.44 517.967H441.194C439.604 517.967 438.314 519.256 438.314 520.847C438.314 522.437 439.604 523.727 441.194 523.727H446.44C448.031 523.727 449.32 522.437 449.32 520.847C449.32 519.256 448.031 517.967 446.44 517.967Z" fill="#E6E6E6"/>
<path d="M413.12 518.447H380.514C378.924 518.447 377.634 519.736 377.634 521.327C377.634 522.917 378.924 524.207 380.514 524.207H413.12C414.711 524.207 416 522.917 416 521.327C416 519.736 414.711 518.447 413.12 518.447Z" fill="#E6E6E6"/>
<path d="M385.44 504.967H380.194C378.604 504.967 377.314 506.256 377.314 507.847C377.314 509.437 378.604 510.727 380.194 510.727H385.44C387.031 510.727 388.32 509.437 388.32 507.847C388.32 506.256 387.031 504.967 385.44 504.967Z" fill="#E6E6E6"/>
<path d="M445.44 504.967H440.194C438.604 504.967 437.314 506.256 437.314 507.847C437.314 509.437 438.604 510.727 440.194 510.727H445.44C447.031 510.727 448.32 509.437 448.32 507.847C448.32 506.256 447.031 504.967 445.44 504.967Z" fill="#E6E6E6"/>
<path d="M462.44 504.967H457.194C455.604 504.967 454.314 506.256 454.314 507.847C454.314 509.437 455.604 510.727 457.194 510.727H462.44C464.031 510.727 465.32 509.437 465.32 507.847C465.32 506.256 464.031 504.967 462.44 504.967Z" fill="#E6E6E6"/>
<path d="M429.12 505.447H396.514C394.924 505.447 393.634 506.736 393.634 508.327C393.634 509.917 394.924 511.207 396.514 511.207H429.12C430.711 511.207 432 509.917 432 508.327C432 506.736 430.711 505.447 429.12 505.447Z" fill="#E6E6E6"/>
<path d="M573.81 731.77C573.2 732.08 572.58 732.39 571.97 732.69C556.17 740.59 543.53 745.08 526.24 750C524.78 733.7 523.37 705.05 522 687.29C521.64 682.68 521.28 678.81 520.93 676.08C520.842 674.628 520.545 673.197 520.05 671.83L521.13 751.4C499.623 757.091 477.529 760.275 455.29 760.89C454.13 760.92 452.99 760.94 451.89 760.96C451.5 760.97 451.12 760.98 450.74 760.98C449.49 760.99 448.25 761 447 761C423.564 761.017 400.213 758.187 377.46 752.57C377.95 736.44 378.44 708.11 378.91 687.29C379.01 683.22 379.1 679.43 379.2 676.08C379.39 668.92 379.59 663.76 379.78 662.03C379.612 662.336 379.481 662.662 379.39 663C378.464 667.312 377.832 671.682 377.5 676.08C377.15 679.43 376.8 683.22 376.45 687.29C374.59 708.92 372.65 738.33 370.65 750.8C358.746 747.55 347.064 743.532 335.68 738.77C329.68 736.27 323.787 733.573 318 730.68C319.1 723.48 320.25 715.41 321.43 707.04C322.35 700.55 323.3 693.88 324.27 687.29C325.77 677.11 327.31 667.13 328.87 658.34C331.15 645.5 333.49 635.18 335.81 630.44C338.01 625.94 340.21 621.5 342.34 617.25C343.08 615.76 343.82 614.29 344.54 612.86C344.71 612.52 344.88 612.19 345.05 611.86C346.58 608.85 348.06 605.97 349.47 603.27C350.68 600.96 351.83 598.78 352.92 596.77C355.56 591.89 357.8 588 359.46 585.54C366.4 575.013 376.732 567.176 388.74 563.33L389.04 563.25L389.25 563.34L409.7 557.06L414.7 555.52L421.78 550.13L436.3 539.08L480.01 541.77L488.52 562.26L507.58 569.23L507.91 569.08L508.2 568.96L508.5 569.04C520.506 572.889 530.837 580.726 537.78 591.25C538.72 592.66 539.86 594.52 541.15 596.77C542.25 598.68 543.45 600.86 544.75 603.27C546.6 606.7 548.62 610.57 550.76 614.76C551.23 615.68 551.71 616.62 552.19 617.57C553.08 619.33 553.983 621.127 554.9 622.96C557.03 627.21 559.23 631.65 561.43 636.16C563.34 640.07 565.27 648.11 567.17 658.34C568.74 666.84 570.3 676.86 571.81 687.29C573.79 700.81 571.68 717 573.47 729.44C573.58 730.23 573.7 731 573.81 731.77Z" fill="#FFBD59"/>
<path d="M447.615 522.725C475.691 522.725 498.451 499.964 498.451 471.888C498.451 443.812 475.691 421.052 447.615 421.052C419.539 421.052 396.779 443.812 396.779 471.888C396.779 499.964 419.539 522.725 447.615 522.725Z" fill="#FFB6B6"/>
<path d="M531.45 404.52C530.445 402.174 529.108 399.985 527.48 398.02C519.76 388.59 505.72 384.44 491.31 395.6C488.536 394.98 485.645 395.146 482.96 396.08C481.693 396.539 480.505 397.193 479.44 398.02C477.258 399.722 475.556 401.962 474.5 404.52C473.936 405.871 473.565 407.295 473.4 408.75C469.838 406.899 466.068 405.479 462.17 404.52C452.606 402.141 442.604 402.141 433.04 404.52C429.975 405.295 427.024 406.465 424.26 408C419.58 410.7 416.89 414.11 416.41 417.9C409.66 418.28 402.64 421.83 397.41 427.65C396.82 428.3 396.25 428.98 395.72 429.68C391.322 435.435 388.958 442.487 389 449.73V451H390.27C393.75 450.997 397.197 451.669 400.42 452.98C402.509 453.819 404.487 454.91 406.31 456.23C407.503 457.076 408.629 458.012 409.68 459.03C412.116 461.388 414.179 464.102 415.8 467.08C419.955 474.605 421.395 483.329 419.88 491.79C419.532 493.748 419.024 495.675 418.36 497.55C417.415 500.225 416.171 502.785 414.65 505.18C414.59 505.27 414.54 505.36 414.48 505.45C413.81 506.52 413.17 507.61 412.57 508.71C412.12 509.53 411.7 510.37 411.31 511.21C410.17 513.548 409.207 515.968 408.43 518.45C407.038 522.84 406.218 527.391 405.99 531.99C405.92 533.21 405.9 534.43 405.94 535.65C405.999 538.795 406.344 541.928 406.97 545.01C407.06 545.43 407.15 545.84 407.24 546.26L407.97 549.45L409.7 557.06L412.01 567.16L413.65 564.81C414.21 564.01 415.62 561.55 417.51 558.07C418.76 555.8 420.21 553.09 421.78 550.13C423.97 545.98 426.37 541.35 428.72 536.73C429.67 534.86 430.61 533 431.52 531.18C433.24 527.73 434.86 524.4 436.25 521.44C437.53 518.71 438.62 516.29 439.43 514.35C439.68 515.62 439.89 516.91 440.05 518.21C440.23 519.53 440.36 520.87 440.43 522.21C440.45 522.41 440.46 522.62 440.47 522.82L440.51 523.64L440.52 523.88L441.58 524.02C447.694 524.675 453.857 524.722 459.98 524.16H459.99C468.101 523.549 476.059 521.621 483.55 518.45C487.805 516.604 491.777 514.167 495.35 511.21C497.02 509.828 498.578 508.317 500.01 506.69C500.37 506.28 500.72 505.87 501.06 505.45C503.039 503.018 504.733 500.367 506.11 497.55C507.032 495.691 507.814 493.765 508.45 491.79C512.29 480.16 512.07 465.65 507.79 448.41C508.946 448.187 510.053 447.761 511.06 447.15C514.2 445.26 516.38 441.51 517.06 436.93L518.14 437.22C521.969 435.437 525.379 432.868 528.15 429.68C528.699 429.031 529.213 428.353 529.69 427.65C534.58 420.45 534.62 411.81 531.45 404.52Z" fill="#2F2E41"/>
<path d="M364.32 658.296L372.817 625.504L380.32 653.8L364.32 658.296Z" fill="black"/>
<path d="M590.43 636.93C587.39 678.81 590.54 697.25 573.76 731.78C558.493 739.253 542.59 745.35 526.24 750C524.54 750.48 522.837 750.947 521.13 751.4C499.623 757.091 477.529 760.275 455.29 760.89C454.13 760.92 452.99 760.94 451.89 760.96C451.5 760.97 451.12 760.98 450.74 760.98C449.49 760.99 448.25 761 447 761C423.564 761.017 400.213 758.187 377.46 752.57C375.18 752.01 372.91 751.42 370.65 750.8C358.746 747.55 347.064 743.532 335.68 738.77C329.68 736.27 323.787 733.573 318 730.68C316.69 730.02 315.38 729.36 314.09 728.68C307.46 717.02 303.69 702.84 303.61 685.8C308.2 656.44 580.29 611.61 590.43 636.93Z" fill="#2F2E41"/>
<path d="M590.422 644.102C590.577 641.509 590.751 638.831 590.953 636.042C580.813 610.722 308.723 655.552 304.133 684.912C304.146 687.604 304.261 690.216 304.455 692.767C315.57 663.788 574.059 621.18 590.422 644.102Z" fill="black"/>
<path d="M321.096 525.152C321.162 524.245 321.033 523.335 320.718 522.482C320.403 521.629 319.909 520.854 319.269 520.208C318.629 519.562 317.859 519.061 317.009 518.738C316.159 518.415 315.25 518.278 314.343 518.336C314.005 518.349 313.668 518.391 313.338 518.462L273.576 527.444C272.687 527.66 271.854 528.059 271.129 528.616C270.404 529.173 269.804 529.876 269.367 530.679C268.784 530.701 268.205 530.785 267.639 530.93C266.402 531.211 265.232 531.732 264.196 532.465C263.16 533.198 262.279 534.127 261.602 535.2C260.926 536.274 260.467 537.47 260.253 538.72C260.038 539.971 260.072 541.251 260.353 542.488C260.633 543.726 261.155 544.896 261.887 545.932C262.62 546.968 263.55 547.849 264.623 548.526C266.79 549.892 269.412 550.342 271.911 549.775C273.333 549.445 274.664 548.801 275.805 547.891L289.279 585.831C289.952 587.02 290.992 587.96 292.243 588.509C293.494 589.058 294.89 589.187 296.22 588.878L322.069 583.036C323.39 582.727 324.578 582.007 325.464 580.98C326.35 579.953 326.888 578.671 327 577.32L321.096 525.152ZM271.314 547.074C269.529 547.477 267.658 547.155 266.11 546.18C264.562 545.205 263.464 543.656 263.056 541.872C262.649 540.088 262.965 538.216 263.936 536.665C264.907 535.115 266.454 534.013 268.236 533.6C268.362 533.569 268.488 533.6 268.613 533.569C268.604 534.713 268.896 535.84 269.461 536.835L274.392 545.441C273.534 546.255 272.47 546.82 271.314 547.074Z" fill="#2F2E41"/>
<path d="M314.343 518.336C314.72 523.361 306.114 529.14 294.587 531.433C284.003 533.6 274.518 532.093 271.848 528.135C272.385 527.817 272.967 527.584 273.576 527.444L313.338 518.462C313.668 518.391 314.005 518.349 314.343 518.336Z" fill="#1F1F1F"/>
<path d="M286.843 645.905L309.177 634.738L290.566 584.488L285.661 559.146C285.023 555.853 283.533 552.786 281.339 550.25C279.145 547.714 276.324 545.798 273.157 544.694C269.991 543.59 266.59 543.336 263.294 543.958C259.999 544.58 256.925 546.056 254.378 548.238C250.605 551.472 248.236 556.046 247.771 560.994C247.306 565.941 248.782 570.876 251.886 574.757L270.093 597.516L286.843 645.905Z" fill="#FFB6B6"/>
<path d="M309.177 625.433L279.399 640.322L301.997 711.131C303.62 716.216 306.529 720.795 310.443 724.424C314.356 728.054 319.141 730.611 324.333 731.847C330.735 733.372 337.457 732.817 343.523 730.265C349.589 727.712 354.684 723.294 358.07 717.65L417.995 614.936C422.242 607.858 423.553 599.401 421.648 591.37C419.743 583.338 414.773 576.371 407.8 571.954C404.049 569.579 399.841 568.02 395.448 567.379C391.055 566.738 386.577 567.029 382.304 568.233C378.031 569.437 374.06 571.527 370.648 574.368C367.237 577.208 364.462 580.735 362.504 584.719L325.928 662.656L309.177 625.433Z" fill="#FFBD59"/>
<path d="M299.967 561.441C299.911 561.441 299.857 561.432 299.804 561.414L293.303 559.176C293.224 559.149 293.154 559.103 293.097 559.042C293.041 558.981 293.001 558.907 292.98 558.826C292.96 558.746 292.96 558.661 292.98 558.581C293.001 558.5 293.041 558.426 293.097 558.365L297.933 553.101C297.977 553.052 298.03 553.012 298.09 552.984C298.15 552.957 298.214 552.941 298.28 552.938C298.346 552.935 298.411 552.945 298.473 552.967C298.535 552.99 298.592 553.024 298.64 553.069C298.689 553.113 298.728 553.167 298.756 553.227C298.783 553.286 298.799 553.351 298.802 553.417C298.804 553.482 298.794 553.548 298.771 553.61C298.748 553.671 298.714 553.728 298.669 553.776L294.35 558.479L300.129 560.469C300.241 560.507 300.336 560.584 300.396 560.686C300.457 560.787 300.479 560.907 300.46 561.024C300.44 561.141 300.38 561.247 300.29 561.323C300.2 561.4 300.085 561.441 299.967 561.441Z" fill="#3F005E"/>
<path d="M308.878 559.617C308.779 559.617 308.681 559.587 308.599 559.532C308.516 559.476 308.452 559.397 308.415 559.305C308.378 559.212 308.369 559.111 308.389 559.013C308.41 558.916 308.459 558.827 308.531 558.758L312.925 554.509L307.022 552.076C306.961 552.051 306.906 552.015 306.859 551.968C306.813 551.922 306.776 551.867 306.75 551.806C306.725 551.746 306.712 551.681 306.712 551.615C306.712 551.549 306.724 551.484 306.75 551.423C306.775 551.363 306.811 551.307 306.858 551.261C306.904 551.214 306.959 551.178 307.02 551.152C307.081 551.127 307.146 551.114 307.211 551.114C307.277 551.114 307.342 551.127 307.403 551.152L314.012 553.876C314.089 553.907 314.157 553.958 314.209 554.022C314.262 554.086 314.297 554.163 314.313 554.244C314.329 554.326 314.324 554.41 314.299 554.489C314.274 554.568 314.229 554.64 314.169 554.697L309.226 559.477C309.133 559.567 309.008 559.617 308.878 559.617Z" fill="#3F005E"/>
<path d="M301.332 564.5C301.282 564.5 301.232 564.493 301.185 564.477C301.122 564.458 301.063 564.427 301.013 564.385C300.962 564.343 300.92 564.292 300.889 564.234C300.859 564.176 300.84 564.112 300.834 564.047C300.827 563.981 300.834 563.915 300.854 563.852L305.468 548.852C305.508 548.726 305.596 548.621 305.713 548.559C305.83 548.497 305.967 548.485 306.093 548.524C306.22 548.563 306.326 548.65 306.388 548.767C306.45 548.884 306.463 549.021 306.424 549.147L301.81 564.147C301.778 564.25 301.715 564.339 301.629 564.402C301.543 564.466 301.438 564.5 301.332 564.5Z" fill="#3F005E"/>
<defs>
<linearGradient id="paint0_linear_1001_75" x1="539.358" y1="-62.0518" x2="539.358" y2="789.31" gradientUnits="userSpaceOnUse">
<stop offset="0.151042" stop-color="#3F005E"/>
<stop offset="0.338542" stop-color="#4B0C6A" stop-opacity="0.971656"/>
<stop offset="0.510417" stop-color="#5F207E" stop-opacity="0.924454"/>
<stop offset="0.697917" stop-color="#753694" stop-opacity="0.872961"/>
<stop offset="1" stop-color="#995AB7" stop-opacity="0.79"/>
</linearGradient>
</defs>
</svg>
